<mxfile host="app.diagrams.net" agent="Mozilla/5.0 (Windows NT 10.0; Win64; x64; rv:129.0) Gecko/20100101 Firefox/129.0" version="24.7.6">
  <diagram name="Page-1" id="4bpVQHCz979mSyAzAPYk">
    <mxGraphModel dx="1182" dy="460" grid="1" gridSize="10" guides="1" tooltips="1" connect="1" arrows="1" fold="1" page="1" pageScale="1" pageWidth="1693" pageHeight="945" background="#ffffff" math="0" shadow="0">
      <root>
        <mxCell id="0" />
        <mxCell id="1" parent="0" />
        <mxCell id="3M7Vr9DxULC0OH6YLq8r-95" value="Cloud" style="rounded=0;whiteSpace=wrap;html=1;fillColor=#dae8fc;strokeColor=#6c8ebf;opacity=40;dashed=1;dashPattern=12 12;labelPosition=center;verticalLabelPosition=top;align=center;verticalAlign=bottom;" vertex="1" parent="1">
          <mxGeometry x="938" y="112" width="500" height="430" as="geometry" />
        </mxCell>
        <mxCell id="3M7Vr9DxULC0OH6YLq8r-50" value="&lt;div&gt;Farm/NB-IoT Gateway&lt;/div&gt;&lt;div&gt;to access the Internet&lt;/div&gt;" style="rounded=0;whiteSpace=wrap;html=1;fillColor=#d5e8d4;strokeColor=#82b366;opacity=40;dashed=1;dashPattern=12 12;labelPosition=center;verticalLabelPosition=top;align=center;verticalAlign=bottom;" vertex="1" parent="1">
          <mxGeometry x="682.5" y="112" width="230" height="430" as="geometry" />
        </mxCell>
        <mxCell id="3M7Vr9DxULC0OH6YLq8r-30" value="Soil Moisture IoT System 1 - In Paddock 1" style="rounded=0;whiteSpace=wrap;html=1;fillColor=#fff2cc;strokeColor=#d6b656;opacity=40;dashed=1;dashPattern=12 12;labelPosition=center;verticalLabelPosition=top;align=center;verticalAlign=bottom;" vertex="1" parent="1">
          <mxGeometry x="16" y="112" width="627" height="458" as="geometry" />
        </mxCell>
        <mxCell id="3M7Vr9DxULC0OH6YLq8r-45" style="edgeStyle=orthogonalEdgeStyle;rounded=0;orthogonalLoop=1;jettySize=auto;html=1;" edge="1" parent="1" source="3M7Vr9DxULC0OH6YLq8r-2" target="3M7Vr9DxULC0OH6YLq8r-7">
          <mxGeometry relative="1" as="geometry" />
        </mxCell>
        <mxCell id="3M7Vr9DxULC0OH6YLq8r-62" style="edgeStyle=orthogonalEdgeStyle;rounded=0;orthogonalLoop=1;jettySize=auto;html=1;" edge="1" parent="1" source="3M7Vr9DxULC0OH6YLq8r-2" target="3M7Vr9DxULC0OH6YLq8r-61">
          <mxGeometry relative="1" as="geometry" />
        </mxCell>
        <mxCell id="3M7Vr9DxULC0OH6YLq8r-65" style="edgeStyle=orthogonalEdgeStyle;rounded=0;orthogonalLoop=1;jettySize=auto;html=1;" edge="1" parent="1" source="3M7Vr9DxULC0OH6YLq8r-2">
          <mxGeometry relative="1" as="geometry">
            <mxPoint x="104" y="282" as="targetPoint" />
            <Array as="points">
              <mxPoint x="186" y="282" />
            </Array>
          </mxGeometry>
        </mxCell>
        <mxCell id="3M7Vr9DxULC0OH6YLq8r-66" style="edgeStyle=orthogonalEdgeStyle;rounded=0;orthogonalLoop=1;jettySize=auto;html=1;entryX=1;entryY=0.5;entryDx=0;entryDy=0;" edge="1" parent="1" source="3M7Vr9DxULC0OH6YLq8r-2" target="3M7Vr9DxULC0OH6YLq8r-6">
          <mxGeometry relative="1" as="geometry">
            <Array as="points">
              <mxPoint x="173" y="442" />
            </Array>
          </mxGeometry>
        </mxCell>
        <mxCell id="3M7Vr9DxULC0OH6YLq8r-2" value="&lt;div&gt;Microcontroller&lt;/div&gt;" style="pointerEvents=1;shadow=0;dashed=0;html=1;strokeColor=none;fillColor=#4495D1;labelPosition=center;verticalLabelPosition=bottom;verticalAlign=top;align=center;outlineConnect=0;shape=mxgraph.veeam.cpu;" vertex="1" parent="1">
          <mxGeometry x="158" y="336" width="56" height="56" as="geometry" />
        </mxCell>
        <mxCell id="3M7Vr9DxULC0OH6YLq8r-13" style="edgeStyle=orthogonalEdgeStyle;rounded=0;orthogonalLoop=1;jettySize=auto;html=1;exitX=1;exitY=0.5;exitDx=0;exitDy=0;" edge="1" parent="1" source="3M7Vr9DxULC0OH6YLq8r-5" target="3M7Vr9DxULC0OH6YLq8r-2">
          <mxGeometry relative="1" as="geometry" />
        </mxCell>
        <mxCell id="3M7Vr9DxULC0OH6YLq8r-5" value="Soil Moisture Sensor 1Â &#xa;Depth 1: e.g. 10cm&#xa;" style="shape=image;imageAspect=0;aspect=fixed;verticalLabelPosition=bottom;verticalAlign=top;image=data:image/png,iVBORw0KGgoAAAANSUhEUgAAAgAAAAIACAYAAAD0eNT6AAAACXBIWXMAAA7DAAAOwwHHb6hkAAAAGXRFWHRTb2Z0d2FyZQB3d3cuaW5rc2NhcGUub3Jnm+48GgAAIABJREFUeJzt3WmYZVd93/vf2nufsaq6q7q6pR6lVqslDELYjrgk2I4ZjE3seEi4Cc4Fgw1I4JtLEtuJzZPIkhshDxgbkOT4XsBJHiM5gIxt4LHjYEAMBptcJk2tAQ0t9azu6prrTHtYedEIWqK7pao6e61zzvp+nkcvurrP/v9VXb3Xb6+991pGwICxVuaDh59/ZRRHLyqsnmMiPUdWeyWNSZqQtFFS5LdLDD4ra42stZKVikIqCiubWxWFVZHbvlYzRlbG5EY2V2TmIumgjHkgSczHf+Hiez9mjIq+FgTWyfhuAJCk209cMd7N41dZa35Ssi+VtMV3TxhttpDyvFCWWhWplVV/A8GZjFFhInPERNH/qCu6/vV77z5RWjHgWSIAwKtbjzz/B6yJflHSq3T6Ch9wzlqrPLVKe0XfZwaezhjZKI4ejWO980179n+g1GLAeRAA4MUHj37vD8nat8noJ333ApypyK16nVx5Vm4QkKQoNotxZG6+eu/+60ovBjwNAQBO3Xroir02jv9A0it99wKcT54V6rYL2aL8IBAn0VxUMa+7eve9f1V6MeBbCABw4vb9V1Q7U/H1kn5VUtV3P8CzYqVet1DaLU7/omRJxfztxq75iVdfsX+59GIIHgEApfuTo99/cWbzDxujf+S7F2Atisyq08pPv1FQsiiKVpIx/dSbdu7/bOnFEDRepUKp/vjIlT+TK7+LwR/DLEqMGhOx4qT8a6aiKMbS5eIzf/TIFW8vvRiCxgwASvPBY1f+gqz5gKTEdy9Av3RbubLUxSv9RklVt11z6X2vc1AMASIAoBQfPPqCayXd6LsPoAy9dq6052ZdnziJ/ubNl+3noVn0HQEAfXfrkSvfao25xXcfQJm67VyZoxBQqUSfuHrv/p9xUgzB4BkA9NUHj175GmvMTb77AMpWa0SKK25OoWla/PQHHr6CRYPQV8wAoG/++PCVLzaR+bykiu9eACes1F7JSl898ElJPXnjNZfc89+cFMPIIwCgL/7k8Sun8or5uqTdvnsBXCoKq/Zy5mKZAJnIZCaKvuctl937SPnVMOq4BYC+yCvmv4nBHwGKIqNaPXZSyxY2kS2+4KQYRh4BAOv2x8de8C8k8YASgpVUIydrBEhSkdvtH3joit92UgwjjVsAWJf3Hb2q2VB6n6SLffcC+FQUVu2lzEktEynfUIl3vGbPvU84KYiRxAwA1qWu9Fox+AOKIqNKzdWtAMUrRfGnTophZDEDgDW7ffaqjZ1O+rikjb57AQaBLaT2Uibr4IlAY2Szon7JW5/3jcdLL4aRxAwA1qzbTX9JDP7At5lIiqturquslanVuv/FSTGMJGYAsCY3P7S3NjnWPCJp2ncvwCBx/CxAsSmLNrJ9MNaCGQCsycbx5k+JwR/4LlFkFCduTq22ULRQ1bVOimHkEACwVuxQBpyDq9sAklRY+3pnxTBSCABYtdtnr9porH7cdx/AoKo4mgGQTq8LcOtjz93mrCBGBgEAq9Ztpy8R6/0D52akKHY3C9DJ47c4K4aRQQDAqlmjl/nuARh0rnYKlCRZ+0/dFcOoIABgLV7iuwFg0MUOZwCKwj7PWTGMDAIAVmWfVSTpub77AAady1sANldzn1XirCBGAgEAq3LZiSt3S6r77gMYdMac/s8FK6uLHn/+i9xUw6ggAGBVitxc7rsHYFgYh7MAWV5waw6rQgDAqlhjt/ruARgWTk+wNmJTLqwKAQCrYgqN++4BGBoOF1s3spPuqmEUEACwKtaYCd89AMPCuHoIQJK1IgBgVXhqFKtiZBt2CPaQKopJdds/pDzbrTy/QNby3OKwK2yszLbVza2WupMq1CmtVhR1VK88obHaAU1v+KKSeGFtB3IYAIyxTWfFMBIIABgpvd73aXnhLUq7L5K1se92UIKKpKlI6tgDOtmKtdwt99a3Mbmmxv9/XbL1/9XG5l2r/LQtpSegHwgAGAlFsUGLc9er03qF71bggJHUMJdo15jUqj+iQ0s7VBTlzPJYG2t26cWaXXqxtkx+Ss/d+XYl8VIptQCXeAYAQy/Ldmv2idsY/ANkJI3Fe7R7oqZqXN4tgSednP9RffWhP1Gru7v0WkDZCAAYakW+WbMn3q8su8h3K/CoHksXT9QUOzijtboX6xuP/Bd10wvLLwaUiACAoWVtTbMzN6vIL/DdCgZAJZJ2jbm5595NN+uex96jwtac1APKQADA0Gotv1ZZjz1Q8B3NijTlaExebF2hwyf/lZtiQAkIABhKttio5YU3+G4DA2hzwypy9PbdYyfepDTf4KYY0GcEAAylduuVspY1ifDdKpE0UXFTK8s36sT8K90UA/qMAICh1G2/zHcLGGDjVXfv388s8LOI4UQAwBAy6nau8t0EBtiYoxkASZpfeaGGYXVM4OkIABg6RT4lqeq7DQyw2LjbhycvasqyjY6qAf1DAMDQKYrNvlvAgDOSEodnt27Gq6gYPgQADB1rufrHM3P1JoAkFQU/kxg+BAAAAAJEAAAAIEAEAAAAAkQAAAAgQAQAAAACRAAAACBABAAAAAJEAAAAIEAEAAAAAkQAAAAgQAQAAAACRAAAACBABAAAAAJEAAAAIEAEAAAAAkQAAAAgQAQAAAACRAAAACBABAAAAAJEAAAAIEAEAAAAAkQAAAAgQAQAAAACRAAAACBABAAAAAJEAAAAIEAEAAAAAkQAAAAgQAQAAAACRAAAACBABAAAAAJEAAAAIEAEAAAAAkQAAAAgQAQAAAACRAAAACBABAAAAAJEAAAAIEAEAAAAAkQAAAAgQAQAAAACRAAAACBABAAAAAJEAAAAIEAEAAAAAkQAAAAgQAQAAAACRAAAACBABAAAAAJEAAAAIEAEAAAAAkQAAAAgQAQAAAACRAAAACBABAAAAAJEAAAAIEAEAAAAAkQAAAAgQAQAAAACRAAAACBABAAAAAJEAAAAIEAEAAAAAkQAAAAgQAQAAAACRAAAACBABAAAAAJEAAAAIEAEAAAAAkQAAAAgQAQAAAACRADA0ImiJd8tYAhkhbtaSbLorhjQJwQADB0TnfTdAgaclZQ7rFdL+JnE8CEAYOhEUUtRPOu7DQywXq7TKcCBamVGcdR2UwzoIwIAhlK9/gXfLWCALafuam2e4GcRw4kAgKFUa37WdwsYYEs946zW5o13OKsF9BMBAEOpVv9bJZUHfLeBAdTKTv/nwnj9QW2e+JKbYkCfEQAwpApNTN7iuwkMGCvpiZa7q/+9O94jGYevGwB9RADA0KrVv6SxiT/x3QYGyExbaju6+t+15VZtGv97N8WAEhAAMNTGN75btcbf+m4DA2ChJ8203Vz9T2/4gvZue7eTWkBZCAAYasbkmpz+JTXHP+S7FXg025WOLrt582/H9Ef1gt2/LMPUP4Zc4rsBYL2MybVh6p2q1u7S0sK/VZ5t990SHOnl0onuohY7G0uv1age0Z5t79WFk39Tei3ABQIARka9+T9Vb96h9vJPq916hXq9F0qWH/FRY620nFot5yuaa49JKm/wNybT1NhXdMHkp7R10ycUGYcLDAAl4+yIEdNTY/yjaox/VLYYU5ZdpCLfoqKYlrWx7+awZpF62ZjSoqm0KNTQgpqmpwtKqGRMrlpyStXKSTWqB5XEKyVUAfwjAGBkmWhFler9ku733Qr6oOm7AWDE8BAgAAABIgAAABAgAgAAAAEiAAAAECACAAAAASIAAAAQIAIAAAABIgAAABAgAgAAAAEiAAAAECACAAAAASIAAAAQIAIAAAABIgAAABAgAgAAAAEiAAAAECACAAAAASIAAAAQIAIAAAABIgAAABAgAgAAAAEiAAAAECACAAAAASIAAAAQoMR3A0DIKjbRbrtN2+y0mrauaMQzeaFCLdPRMXNKj5ljSk3muyUgWAQAwJM9xXa9MH+eaqr4bsUtK12sbfo+Xa6vxvfrQHTUd0dAkAgAgAdXFpfq+/LLfbfhVV1V/VD+vRpTQ/dGj/hupyTGdwPAOY32fCP6zsp0ffcw7HbaC4If/M/0/fnl2lFs8d1GKaysu1rWtJ0Vw0ggAGBVjLTsu4dhZiS9MHuu7zYGzguL547mtbK78V9RZBfcVcMoIABgVQprlnz3MMwusJs0oabvNgbOBjumLXbKdxt9Zx0GAGsMAQCrQgDA6kTFMd8tDLNRHOT65YJR/N64TAC5PeCuGEYBAQCrEmXFQ757GGYNW/PdwsBq2LrvFvouz90FABPbLzorhpFAAMCq1HY+74Cknu8+hlUq3ns/l96orQlg5fQZgA2XRF92Vw2jgACAVXm1+dPcSPf57mNYzUc8Q3kuCyP2eEmeF85qmdi0Xm32E8yxKgQArJqVvuC7h2F11JxQptx3GwMnU64jOum7jb4qHP41x5G53101jAoCANbAfN53B8Oqp0wPRI/5bmPg3Bc/NnLLAueZu/n/SOaTzophZBAAsGq9PPuceA5gze6KHtITZtZ3GwPjpJnTvdHDvtvoLyvlmbtbAO1e5f3OimFkEACwalfv2j8rI6441qgwVp+Nv6Yj0QnfrXh3JDqpz8RfVS53g6ULWeru/yeKzbG3Pu8bjzsriJHBXgBYE1PoQ9bop3z3MaxSk+mO+Gu6yGzVc+zFurDYNJor4Z2FldUT0ZweNI/pYPSE73ZK4TIAxFF0u7NiGCkEAKxJy1Q+3lA6K2mT716G2cHouA7quOI4UlMNVe1o/5PsmUwttUfuiv9M1loVjt7/N0a2kjbf4aQYRk4oFx0owa1Hr7zBylznuw9gkPQ6udKum4CTVKLPXbN3/8ucFMPI4RkArJmNzB9IYgcy4FusldKeo9kNI1XryVvcFMMoIgBgzV6/9e4Tkv7Qdx/AoMi6ubPV/5Ik/vLP77zrm26qYRQRALAuaaX7dsmyQRCCVxRWPUdT/4pUVGvxv3BTDKOKAIB1edOWB5eM1bW++wB8Szvulv6rVqI/+vlddx1xVhAjiYcAsW7Wytx69AWfkNFP+u4F8CFLrbotNysZRrFm3nzZ/RcaM8KvUsAJZgCwbsbIKtabJB333Qvgmi2kXtvN4G+MiiiJf4TBH/1AAEBfvH7r3ScKmZ+X2OkGYem2M1kXD/4ZKUmi/3jNnnvvdlANAeAWAPrq1qMvuNpKH/DdB+BCt50rc/TaX1Ixt1+z976fdVIMQWAGAH31uu13/5GVfst3H0DZeh13g3+lEn2RwR/9xgwA+s5amduOvuAPrNG/9t0LUIa0W6jn6Kn/qGK++eZL73su9/3Rb8wAoO+Mkf257Xe/1ci+z3cvQL+lPXeDf5xEDx+79L4rGPxRBgIASmGM7CPb7vnXRvY2370A/ZL1CvXajq78E3Nocq+u2Gfk5hUDBIcAgNLsMypq277nF6z0Id+9AOuV9Qp1HQ3+cRIdqSYXXP5qs7/npCCCxDMAKN3t9l/G7aMP/HdjzKt99wKsRZYW6rYKuVjoP66YY7bZ2PuW7V9rlV4MQSMAwInb919R7UzGf8ZqgRg2eXr6yt/Fu/5RbE51TW/Pv73s4cXyqyF0BAA4c/v+K6rdqfhjVvpx370Az0aWWnXbmZMd/uLYzI7V4r2vvfieufKrAQQAOPa+o1c1G0r/UtLLfPcyKBqqaVsxrTHbVGXEH8tJVWjFtHTMnFLbdH23c155Vqiz4uiBv9gsTiTR5a/Zc+8TTgoCIgDAg/cdvarZVPrXVvph3734NG6buqp4ji4qtvpuxTkrq4PRE/p69ICWTdt3O98lz6w6K6429zFLzap9zut238+22nCKAAAvbjv1DzcU3fanJL3Idy8+XGg36SXZP1BNFd+teNVVqs8lX9MJMziz3kV++srfxT1/E6sdF5Urrvmeuw+UXw14qtGeb8TA+rnp/7WYd6NXGulrvntxbYPG9NLsquAHf0mqqaKXZVdpQmO+W5EkFblV2+Hgn0TRCxj84QsBAN684ZI752NV/omke3334tIL8+eqqsR3GwOjqopemD/Xdxsq8m9N+7sY/I3pNaPKi67eu//h8qsBZ0cAgFev2f61GUX6Ecne57sXFzZoTDuKLb7bGDg7iy1eZwGKQuqsuNnWN4pML6pV/+Hr994dVPDF4CEAwLvXb737RBLbl0t6wHcvZdtebPbdwsDy9b2xhVVnJXU1+Keq2Re/+ZI77yy/GnB+BAAMhNdceO8TmS1+TNJI3w8ds03fLQyscTWc1yyKb93zd7DVjolMpsS8/C277/96+dWAZ0YAwMB44457D0n5SyU97ruX0hgHl5lDyrq4BD9DUUid5Vy2KL+uiWxebRaveMul+79YejHgWSIAYKC8fvv+g3Ee/ag1Ouq7lzIs28F7531QuFwPwH77nr+LeX8VSS35mTfueuDz5RcDnj0CAAbOa3fd+VBU6OWSjvvupd+ORCd9tzCwjho33xtrTz/t7+TK36gwUfKqq3ff+1elFwNWiQCAgfS6HXc/GEX2xySd8t1LPy2blg5GrPb6dI9Hx53MAFgrtZdzFW4GfxvX9JpfvOyej5deDFgDAgAG1s9tveeevIheIWnWdy/99LXofnWV+m5jYHTU09ciBy+AWKnbcnXlb2ylGv3CNZfc/5HSiwFrRADAQHvDzjvvVKSfkOzIbI+6bNq6I/mKOgO+GY4LbdPVHclXteLg6r/bzpRn5Q/+kZGtJvH//aY9+z9YejFgHdgLAEPh1iPP/wFrok9KGvfdS780VNP355drT7FDJrB/ioWxOqAj+kbyTbVVfhDK0kLdloOd/YxUq0f/5o279/9B+cWA9QnrrIOh9sGj3/tDkv2f0oAsHN8nVVW0tdikphqKFftup1S5crXU1vFoVj1Ht0GstWovZ6W/629kFNei/3DNnnt/v9xKQH8QADBUbj3y/B+1JvqEpLrvXjAc0k6uXrf8lX4qtei6q/fsv7H0QkCf8AwAhsrrdtz7KWP0Ft99YDhYa5X2yr/vn1Si9zP4Y9gQADB0CpmR3zMA/ZGl1s1iP3H05fKLAP1FAAAwsrKeg0X+gSFFAAAwkmwhFTl7LwDnQgAAMJLynKt/4HwIAABGkuXqHzgvAgCAkcQEAHB+BAAAI8nFmv/AMCMAABhNjP/AeREAAIwkxn/g/AgAAAAEiAAAAECACAAAAASIAAAAQIAIAAAABIgAAABAgAgAAAAEiAAAAECACAAAAASIAAAAQIAIAAAABIgAAABAgAgAAAAEiAAAAECACAAAAASIAAAAQIAIAACwTnkvP+i7B2C1CAAAsE5WZsl3D8BqEQAAAAgQAQAAgAARAAAACBABAACAABEAAAAIEAEAAIAAEQAAAAgQAQAAgAARAAAACBABAACAABEAAAAIEAEAAIAAEQAAAAgQAQAAgAARAAAACFDiuwFgtXYkrxpbyh9ZiVQf893LuVib9do6cG9qT8367mWYJdo0VY92PSdWY3y1n40rJxXbjTIlX+fkWpmfaF7WlPaXWgfoNwIAhs6lyfW7u8YO7OD/LdVaYh66ZNL8K9+NDLMD8/bD3cxetaYPb+hzM+c2WYvNJdKNn3NWEegDbgEAABAgAgAAAAEiAAAAECACAAAAASIAAAAQIAIAAAABIgAAABAgAgAAAAEiAAAAECACAAAAASIAAAAQIAIAAAABIgAAABAgAgAAAAEiAAAAECACAAAAASIAAAAQIAIAAAABIgAAABAgAgAAAAEiAAAAECACAAAAASIAAAAQIAIAAAABIgAAABCgxHcDwGrFkdqJ9d3FMzPSku8ehp2RlpIhuEyJI7V99wCsFgEAQ6dZ0aP1ivHdxjOyVt/w3cOwa1T0DWMG/+86kh713QOwWkOQrQEAQL8RAAAACBABAACAABEAAAAIEAEAAIAAEQAAAAgQAQAAgAARAAAACBABAACAABEAAAAIEAEAAIAAEQAAAAgQAQAAgAARAAAACBABAACAABEAAAAIEAEAAIAAEQAAAAgQAQAAgAARAAAACBABAACAABEAAAAIEAEAAIAAEQAAAAgQAQAAgAARAAAACBABAACAABEAAAAIEAEAAIAAEQAAAAiQWesH3/3udzeSleQHC1u8xMhcYWQut7LTksYkTfSvReCpprdeqB/7uZ/13cYz+uqnP6eH7rzbdxtD7bLve4Fe+IqX+m7jGf3NbR/RqeNP+G4DjllrZa1VUeTK81xpnint9ZRmqay1fa1lZKyJjJUxaRzFp6IoeiSO409kjey/7tu3b3Ytx0xW+4FbbrjlBwtTXKNl/Z9Wdtx8K0NY9fd/FgCAQWaMkTFGURQpSSqqSVLzdDDodDtqd1pK07QvtayssYU1kmpFnm+XtF3SPzYt87v7fuU3Hokrye9d987r3reaYz7rAHDLDbf8YGGL3ypU/DBjPQAAZ2eMUaPeUKPeUK/X09LKorIsK6WWlTW9tLdXae//+41fvv53kmrl165753UfeDaffcYAcPO+mzfYyL6nUPEGmbXfMgAAIDTValWbKtNqd9paXlnq+62BM6VZOpnl2fvf/u/3/YeJ+oaX/8pv/sqR8/358z4EePMNN3+/jezXJb1R63heAACAUBlj1Gw0tWlqWkm86jvvq2KtVbfXvXx2+dSBG3/1xvM+LHXOAHDLO255uZX9nKRL+90gAAChSeJEU5ObVKlUS69VFEWl3Wl9+MZfvfE/nevPnDUA3PyOm3+ssMVfS9pQWncAAAQmiiJNbZxSpVIpvZaVVbvT+s3fetuNv3bWXp7+hffse88/sNb+maTyIwoAAIExxmhq4ybFcVx6LSurlVbrd2781Rv/r6f/3lMCwPt+530boyj6U0njpXcFAECgjDGa3DglY8p/vM7Kmk6v/cc3XnvjrjO//pQA0Ek7N0naU3o3AAAELokTjY+5ud4uiqKSd7PPnPm1bweAm2+4+R/L6vVOOgEAAGo2xlRJyn8eQJJ6vd5lN/7ajb/45K+/HQAKFb8tXvUDAMCpsaabWQBrrXpZ93ef/HUkSTffcPNLjMwPOukAAAB8W7VadTYLkKXZxG++7Tf/H+lbAcDKvtlJZQAA8BRPLh3sSpamvyJJ0X/e95/HJf0zZ5UBAMBT1Ot1Z7V6aW/P7/3739scZXH2w5KazioDAICnMCZydhvAyqodt6+JZPUSJxUBAMA5Vavu1t8r8vynIyt7pbOKAADgrJKk3I2CzmRtcUkUKbrMWUUAAHBWcck7BZ4pt8VUZGU3O6sIAADOKorOuUFv3xV5UYkkjTmrCAAAzipysC/At1mZSJKbxw4BAMA5Weuwlux3bwcMAABGHwEAAIAAEQAAAAgQAQAAgAARAAAACBABAACAABEAAAAIEAEAAIAAEQAAAAgQAQAAgAARAAAACBABAACAABEAAAAIEAEAAIAAEQAAAAgQAQAAgAARAAAACBABAACAABEAAAAIEAEAAIAAEQAAAAgQAQAAgAARAAAACBABAACAABEAAAAIEAEAAIAAJb4bKEue50qzVHmer/tYURSpWq0qjuI+dAYAKEue5+qlPRVFse5jxXGsSlJRHI/muX/kAsBKa0UzczNqd9qy1vb12M1GU9OT0xofG+/rcQEA67PcWtapuVNqtVt9Pa4xRo16Q5unNmusOdbXY/s2OgHASsdnjmtuYa60Eq12S612S5MbJrV1y1YZY0qrBQB4ZtZaHTtxTAtLC6Udv9Vu6WD7oKYmp7R1eqs0Iqf+kXkGoOzB/0zzi/M6duKYk1oAgHM7fvJ4aYP/083Nz+n4qeNOarkwEgFgeWXZ2eD/pIWlBS2tLDmtCQD4jsXlRc0vzjutOTc/p5XWitOaZRmJAHBq7pSXujOzM17qAgA8nvvnRuPcP/QBIMsytTr9fejj2ep0O0qz1EttAAhZmqbqdDtearfarb68Yebb0AeAXtrzW7/ntz4AhMj3ub+bdr3W74ehDwD9ftVv1fULv/UBIESFXf97/usxCuf+oQ8ASeL3TcakMjpvUgLAsEhiz+d+z2NPPwx9AKhVa95+EKIoUq1a81IbAEJWr9W9rdCXJMlInPuHPgBI0sYNG73UndwwyWJAAOCBMUYbJzyd+ycmvdTtt5EIANNT06okFac1kyTR5qnNTmsCAL5j89Rm5zPA1UpV01PTTmuWZSQCQBzF2rl9p7N7MnEca9e2XSO7QQQADIM4jrVz205n5+IkSbRj2w5F0UgMnaMRACSpXq1r987dGm+Wu1HPWHNMl+y6RPVavdQ6AIBn1qg3tHvnbo01yt2oZ3xsXJfsvET16uic+4f/McYzVJKKdm3fpU63o+WVZfV6PWVFtu7jxnGsaqWqibEJBn4AGDDVSlUX7bhInW5HSytL6qW9vizUk0SJqtWqxsfGR/LcP1IB4En1Wn0k/7IAAOfGuX91RuYWAAAAePYIAAAABIgAAABAgAgAAAAEiAAAAECACAAAAASIAAAAQIAIAAAABIgAAABAgAgAAAAEiAAAAECACAAAAASIAAAAQIAIAAAABIgAAABAgAgAAAAEiAAAAECACAAAAASIAAAAQIAIAAAABIgAAABAgAgAAAAEiAAAAECACAAAAASIAAAAQIAIAAAABIgAAABAgAgAAAAEiAAAAECACAAAAASIAAAAQIAIAAAABCjx3QDOrbCFVlorStNUeZ7Lyq7reEmcqFqtqtloKjJkPwCnFbZQq91Sr9dTlmfrOpaRURzHqlQqGmuOca4ZYASAAVQUhWbmZjS3MKeiKPp+/CiKND05rempaRlj+n58AMOhsIVOzZ3S7PxsaeeaTRs3aXpqWlFEEBg0BIABk2WZDh49qG6vW1qNoih0cvakllvL2rVtl+I4Lq0WgMGU57kOHTukdqddWo0nL2aWVpZ00faLlCQMOYOESDZAClvo0LFDpQ7+Z2p32jp8/LCsXd+tBQBDxkqHjx8udfA/U7fX5VwzgAgAA2Rufk6dbsdpzVa7pYWlBac1Afg1tzjcNNHUAAAMbklEQVSnVrvltGa709bc/JzTmjg/AsCAsNZqdmHWS+3ZeT91AfjhayCeXZhlFmCAEAAGRC/tKcvW9/TtWnV7XaVZ6qU2ALfSLFU3dXObcZBq47sRAAZEmvodgH3XB+CG73/rWernQgffjQAwINb7jj8AAKtBABgQlUrFa/1qpeq1PgA3Konfc43vcx2+gwAwIGqVmrd/mNVqlfdzgUBUKhVVq34Cf5IkXGwMEALAgDDGaGpyykvtzVObvdQF4Mf05LS3uqw+OjgIAANk08ZNatQbTmuONca0YXyD05oA/JqcmNRYc8xpzUa9oamNfi5ycHYEgAFijNHObTtVr9Wd1Gs2mtqxdQeJHAiNkXZs3aFmvemkXL1W186tOznXDBhu/A6YJE508c6LS92gI45jbZrcxHQcELA4inXRjos0Oz+rmbmZcjcem5yWiTjXDBoCwACKTKQtm7Zoemr69BadaU+2WP9rgsYY1ao1NRtNBn4AMsZoempamyY3qdVuqdvr9mWlPhMZVStsPT7oCAADLDKRxpvjvtsAMOKMMRprjjl/LgB+Ec0AAAgQAQAAgAARAAAACBABAACAABEAAAAIEAEAAIAAEQAAAAgQAQAAgAARAAAACBABAACAABEAAAAIEAEAAIAAEQAAAAgQAQAAgAARAAAACBABAACAABEAAAAIEAEAAIAAEQAAAAgQAQAAgAARAAAACBABAACAABEAAAAIEAEAAIAAEQAAAAgQAQAAgAARAAAACBABAACAABEAAAAIEAEAAIAAEQAAAAgQAQAAgAAlvhsoQ7vT1nJrWb1eT3mRr/t4URSpVqlpfGxcjXqjDx0CAPqt3WlreWVZ3bSroijWfbw4ilWtVEf23D9SASDNUh07cUwrrZW+H3tJS5qZm1Gz0dT2C7arUqn0vQYAYPV6aU/HThxTq90q5fgzczMaa45p25ZtI3XuH5lbAJ1uRwcOHShl8D9Tq93SgUMH1Ol2Sq0DAHhm7U5bjx1+rLTB/0krrRU9dvgxdXvdUuu4NBIBoCgKHT52WHm+/un+ZyMvch06eshZPTxVlqW+W3hW0rTnu4Whl6XD8Xc9LH2OmjzPdfi4u3N/lmc6dOxQX24tD4KRCAAzczNKHQ8KWZ5pZm7GaU2c1l4qd5anX9rLw9HnIGuvDMf3sLW07LuFIM3MzijLMqc10zTVqblTTmuWZSQCwMLigre61lovtUPW63bV6w7+NNzKwqLvFobeMHwPe92u0h6zPa5ZazW/NO+l9sKSnzGn34Y+AHR7XWW52wT4pLzIeRbAk2MHHvfdwnktzc1reX40ThI+Lc3Na2nOz0n+2Tr66GO+WwhSp9vpy5P+a5FlmXojEPqGPgC4nv55ujwbjXtBw+bII4/6buG8Dg94f8PkyCMHfLdwXkcHvL9R5fvc6/q2cxmGPgCYyARdP1SHHnx4YK+wiyzXQ1+/y3cbI+PBr9+pYkAfuF1ZWNThhx7x3UaQfJ97o2joh8/hDwDVStVv/arf+qEqikL3/N2XfbdxVt+8826tLC75bmNktBaX9NCd9/hu46zu+uLf8TaQJ77Pvb7Hnn4Y+gCQxImajaaX2vVaXZVkdBaFGDaP3fegHn/gm77beIr5kzO650uDGUyG2d1f+nvNnxyst24OffNhPX7/YP38haSSVFSv1b3UbjaaiuPYS+1+GvoAIEmbpzb7qbvJT118x//65Kc1+8QJ321Ikrrttr7wsb/knfASZL1UX/jYX6rbbvtuRZI0+8QJ/f1f/43vNoLn6xzsa8zpt5FYCnisOaapySnNzc85q7lxYqMmxiac1cPZ5Wmmz3304/qRn32VNm6e9tZHr9vV5z768YF4bS3Pc7U77b69HZPEiRr1hvcrnpWFRd1x+1/o5a/+56o1/K3LvnhqTp//808oT/0+gAxpYmxCkxsmNb/o7k2RTRs3aaw55qxemcxNN9w0Gi+yW+mJU09odn629FKTGya1dctWGcMDgIOi1mh4CwG9blefvf0vvM9E9Ho9nTh1Qsut5b6vT2GM0VhzTBdOX+j93uvkls3eQsDiqTl95vY/U2el3GVn8exZa3X85HEnIWDTxk26cPOFUkmn/qIodPKUu/NI/OMv+/F9zqqVyUjjzXGNNcaUZZnSvL/TsMYYNRtNbbtgmzZNbmLwHzB5lunggw9r+57dqjfdPRMyKIP/4vKiDh47WOo65b20p4XFBVWrVdWqtdLqPJNOq6Vjjx3URc/Zq8ThxiwM/oPJGKOJsQk1602lWdr/dWHM6Vnm7Rds19TGqdIGf+l0mGm13a1+OTozAE9TFIV6aa8vT+hGUaRqpep9ChTPzOVMwKAM/q12SwePHnS2KqUxRhdtv8jbw7dPcjkTwOA/PPI8Vy/t9Wc74Pj0dsCuXvlzPQMwsgEA4XIRAgZl8LfW6tGDj6rneOOhSlLRpRdf6n0mzEUIYPCHK64DwEi8BQCcqdtu6zMf+XMtzJSzYcegDP6StLS85Hzwl06vgra04n+tg/mTM7rj9r8o7e0ABn+MMgIARlJZIWCQBn9JWmr5G4SXVwZjB7yyQgCDP0YdAQAjq98hYNAGf8nveuSDtBZ6v0MAgz9CQADASOtXCBjEwV+S5PEJnkHbCrtfIYDBH6EgAGDkPRkC5k6cXNPnO62W7vjInw/e4C8pSfyt5TWIy2DPn5zRZ//0Y+q01jZ4z504qU9/+KMM/ggCAQBB6Lbb+vSHPqpD33x4VZ+bO3FSn7ztI2sOD2Ubb477qz3mr/b5zJ04qU9+8MM6dfyJVX3u4IMP6dMf+ujALDcMlG10FgICnkFRFDr44EOaPzGjyc3T510wqL2yoru+8Hf66qc+q16nvMV11qtaqWphcUGFXf87z6uRxMlAr4aZ9np6bP8Daq+0NHXhFlXOs3rhwswpfeWTd2j/l7/Sl3fHgbViISDAkcktm7V190WamNyoar2urJdqZWlRTzx+WDNHjw3cPe5zWVxa1NETR50uBLT9wu3aML7BSb31MsZo845t2nrRLjUnJpRUK+p1OlqaX9CxA4+X9roosFqu1wEYic2AgLWYPzkzcFvMrsWGiQ1Ks1QnHJ04Lth0wdAM/tLpq6qTh4/q5OGjvlsBBgoBABgB01PTqtfqOj5zXL1eOQsD1ao1Xbj5wpHZCQ0IHQEAGBFjzTHt2bVHnW5H7XZbaZ6u+552FEVKkkRjjTHVqrWBvecPYPUIAMAIMcaoUW+oUXe/VS6A4cJrgAAABIgAAABAgAgAAAAEiAAAAECACAAAAASIAAAAQIAIAAAABIgAAABAgCJJme8mAACAO0ZGkaRl340AABA6pzuQGtlIEnthAgDg2Xr37lgNY0wWSXrIWUUAAHBWeZ47qxXH8Vxkrb3HWUUAAHBWWe7ukbzIxI9GkaLPO6sIAADOqpd2ndUyifmrqF1vf0FS21lVAADwFEVRKE1TN8WMVDSK90dve9vbliR93E1VAADwdN1ux1mtSlJ9bN++fSciSYpM9AFnlQEAwFO0O+4m4itJfJMkmSe/cNPbb/qSjH7AWQcAAEDdXlfzC3NOaiVxsnzDe98xIZ2xFHARFddKcrgKAQAAYbPWamXFzXp8xhhVKsl/+vavz/zNm95x022yeq2TTgAACFyr3dLS8qKTWrVq7ZHf+P19e5/89VM2Ayry4q2SDjjpBACAgOVZpuWVJSe14jjOoih+5Zlfe0oA+OV9vzxvZX9WUstJRwAABMhaq7nFeSfr/xsZVWrVN1z3ruseOfPr37Ud8C9d/0tfkdG/lOTohUQAAMJhrdX8wpxyByv/GRk1a2PXX//O6297+u99VwCQpH933b/7H8aYn5DkZm4CAIAAWGs1tzCnXtorvZaRUb3R2Hft7137jrP//nm894b3/h9G5nZJu8toDgCAUGR5pvnFeeVZ+Vf+URxl1VrtDWe78n/SeQOAJP3hb//hVJqmN0t67bP58wAA4Kla7ZaWV5ZKv+dvjFE1qT4am+Tlv/77v/74ef/ssz3oe97xnpfGNv4tK/vi9bcIAMDo66U9La8sOVnnP07ipWpSufa6d/3GLc/mz6/6iv6mt9/0MhldLemfS2qs9vMAAIwya6063Y7anVb5A785vbZ/JYlv+vXfvf69q/zo2rzrXe8aq7fqP5wrf4kx5kpJeyVtkbRBUrzW4wIAMCyKopC1hbI8V5Zl6qU9pWmv71P9xhhJslEUpbGJFkwUP2IS81dFo3j/vn37TqzlmP8bHXODT3/kP30AAAAASUVORK5CYII=;" vertex="1" parent="1">
          <mxGeometry x="64" y="262" width="40" height="40" as="geometry" />
        </mxCell>
        <mxCell id="3M7Vr9DxULC0OH6YLq8r-15" style="edgeStyle=orthogonalEdgeStyle;rounded=0;orthogonalLoop=1;jettySize=auto;html=1;exitX=1;exitY=0.5;exitDx=0;exitDy=0;" edge="1" parent="1" source="3M7Vr9DxULC0OH6YLq8r-6" target="3M7Vr9DxULC0OH6YLq8r-2">
          <mxGeometry relative="1" as="geometry">
            <Array as="points">
              <mxPoint x="173" y="442" />
            </Array>
          </mxGeometry>
        </mxCell>
        <mxCell id="3M7Vr9DxULC0OH6YLq8r-6" value="Soil Moisture Sensor 3&#xa;Depth 3: e.g. 30cm&#xa;" style="shape=image;imageAspect=0;aspect=fixed;verticalLabelPosition=bottom;verticalAlign=top;image=data:image/png,iVBORw0KGgoAAAANSUhEUgAAAgAAAAIACAYAAAD0eNT6AAAACXBIWXMAAA7DAAAOwwHHb6hkAAAAGXRFWHRTb2Z0d2FyZQB3d3cuaW5rc2NhcGUub3Jnm+48GgAAIABJREFUeJzt3WmYZVd93/vf2nufsaq6q7q6pR6lVqslDELYjrgk2I4ZjE3seEi4Cc4Fgw1I4JtLEtuJzZPIkhshDxgbkOT4XsBJHiM5gIxt4LHjYEAMBptcJk2tAQ0t9azu6prrTHtYedEIWqK7pao6e61zzvp+nkcvurrP/v9VXb3Xb6+991pGwICxVuaDh59/ZRRHLyqsnmMiPUdWeyWNSZqQtFFS5LdLDD4ra42stZKVikIqCiubWxWFVZHbvlYzRlbG5EY2V2TmIumgjHkgSczHf+Hiez9mjIq+FgTWyfhuAJCk209cMd7N41dZa35Ssi+VtMV3TxhttpDyvFCWWhWplVV/A8GZjFFhInPERNH/qCu6/vV77z5RWjHgWSIAwKtbjzz/B6yJflHSq3T6Ch9wzlqrPLVKe0XfZwaezhjZKI4ejWO980179n+g1GLAeRAA4MUHj37vD8nat8noJ333ApypyK16nVx5Vm4QkKQoNotxZG6+eu/+60ovBjwNAQBO3Xroir02jv9A0it99wKcT54V6rYL2aL8IBAn0VxUMa+7eve9f1V6MeBbCABw4vb9V1Q7U/H1kn5VUtV3P8CzYqVet1DaLU7/omRJxfztxq75iVdfsX+59GIIHgEApfuTo99/cWbzDxujf+S7F2Atisyq08pPv1FQsiiKVpIx/dSbdu7/bOnFEDRepUKp/vjIlT+TK7+LwR/DLEqMGhOx4qT8a6aiKMbS5eIzf/TIFW8vvRiCxgwASvPBY1f+gqz5gKTEdy9Av3RbubLUxSv9RklVt11z6X2vc1AMASIAoBQfPPqCayXd6LsPoAy9dq6052ZdnziJ/ubNl+3noVn0HQEAfXfrkSvfao25xXcfQJm67VyZoxBQqUSfuHrv/p9xUgzB4BkA9NUHj175GmvMTb77AMpWa0SKK25OoWla/PQHHr6CRYPQV8wAoG/++PCVLzaR+bykiu9eACes1F7JSl898ElJPXnjNZfc89+cFMPIIwCgL/7k8Sun8or5uqTdvnsBXCoKq/Zy5mKZAJnIZCaKvuctl937SPnVMOq4BYC+yCvmv4nBHwGKIqNaPXZSyxY2kS2+4KQYRh4BAOv2x8de8C8k8YASgpVUIydrBEhSkdvtH3joit92UgwjjVsAWJf3Hb2q2VB6n6SLffcC+FQUVu2lzEktEynfUIl3vGbPvU84KYiRxAwA1qWu9Fox+AOKIqNKzdWtAMUrRfGnTophZDEDgDW7ffaqjZ1O+rikjb57AQaBLaT2Uibr4IlAY2Szon7JW5/3jcdLL4aRxAwA1qzbTX9JDP7At5lIiqturquslanVuv/FSTGMJGYAsCY3P7S3NjnWPCJp2ncvwCBx/CxAsSmLNrJ9MNaCGQCsycbx5k+JwR/4LlFkFCduTq22ULRQ1bVOimHkEACwVuxQBpyDq9sAklRY+3pnxTBSCABYtdtnr9porH7cdx/AoKo4mgGQTq8LcOtjz93mrCBGBgEAq9Ztpy8R6/0D52akKHY3C9DJ47c4K4aRQQDAqlmjl/nuARh0rnYKlCRZ+0/dFcOoIABgLV7iuwFg0MUOZwCKwj7PWTGMDAIAVmWfVSTpub77AAady1sANldzn1XirCBGAgEAq3LZiSt3S6r77gMYdMac/s8FK6uLHn/+i9xUw6ggAGBVitxc7rsHYFgYh7MAWV5waw6rQgDAqlhjt/ruARgWTk+wNmJTLqwKAQCrYgqN++4BGBoOF1s3spPuqmEUEACwKtaYCd89AMPCuHoIQJK1IgBgVXhqFKtiZBt2CPaQKopJdds/pDzbrTy/QNby3OKwK2yszLbVza2WupMq1CmtVhR1VK88obHaAU1v+KKSeGFtB3IYAIyxTWfFMBIIABgpvd73aXnhLUq7L5K1se92UIKKpKlI6tgDOtmKtdwt99a3Mbmmxv9/XbL1/9XG5l2r/LQtpSegHwgAGAlFsUGLc9er03qF71bggJHUMJdo15jUqj+iQ0s7VBTlzPJYG2t26cWaXXqxtkx+Ss/d+XYl8VIptQCXeAYAQy/Ldmv2idsY/ANkJI3Fe7R7oqZqXN4tgSednP9RffWhP1Gru7v0WkDZCAAYakW+WbMn3q8su8h3K/CoHksXT9QUOzijtboX6xuP/Bd10wvLLwaUiACAoWVtTbMzN6vIL/DdCgZAJZJ2jbm5595NN+uex96jwtac1APKQADA0Gotv1ZZjz1Q8B3NijTlaExebF2hwyf/lZtiQAkIABhKttio5YU3+G4DA2hzwypy9PbdYyfepDTf4KYY0GcEAAylduuVspY1ifDdKpE0UXFTK8s36sT8K90UA/qMAICh1G2/zHcLGGDjVXfv388s8LOI4UQAwBAy6nau8t0EBtiYoxkASZpfeaGGYXVM4OkIABg6RT4lqeq7DQyw2LjbhycvasqyjY6qAf1DAMDQKYrNvlvAgDOSEodnt27Gq6gYPgQADB1rufrHM3P1JoAkFQU/kxg+BAAAAAJEAAAAIEAEAAAAAkQAAAAgQAQAAAACRAAAACBABAAAAAJEAAAAIEAEAAAAAkQAAAAgQAQAAAACRAAAACBABAAAAAJEAAAAIEAEAAAAAkQAAAAgQAQAAAACRAAAACBABAAAAAJEAAAAIEAEAAAAAkQAAAAgQAQAAAACRAAAACBABAAAAAJEAAAAIEAEAAAAAkQAAAAgQAQAAAACRAAAACBABAAAAAJEAAAAIEAEAAAAAkQAAAAgQAQAAAACRAAAACBABAAAAAJEAAAAIEAEAAAAAkQAAAAgQAQAAAACRAAAACBABAAAAAJEAAAAIEAEAAAAAkQAAAAgQAQAAAACRAAAACBABAAAAAJEAAAAIEAEAAAAAkQAAAAgQAQAAAACRAAAACBABAAAAAJEAAAAIEAEAAAAAkQAAAAgQAQAAAACRAAAACBABAAAAAJEAAAAIEAEAAAAAkQAAAAgQAQAAAACRAAAACBABAAAAAJEAAAAIEAEAAAAAkQAAAAgQAQAAAACRADA0ImiJd8tYAhkhbtaSbLorhjQJwQADB0TnfTdAgaclZQ7rFdL+JnE8CEAYOhEUUtRPOu7DQywXq7TKcCBamVGcdR2UwzoIwIAhlK9/gXfLWCALafuam2e4GcRw4kAgKFUa37WdwsYYEs946zW5o13OKsF9BMBAEOpVv9bJZUHfLeBAdTKTv/nwnj9QW2e+JKbYkCfEQAwpApNTN7iuwkMGCvpiZa7q/+9O94jGYevGwB9RADA0KrVv6SxiT/x3QYGyExbaju6+t+15VZtGv97N8WAEhAAMNTGN75btcbf+m4DA2ChJ8203Vz9T2/4gvZue7eTWkBZCAAYasbkmpz+JTXHP+S7FXg025WOLrt582/H9Ef1gt2/LMPUP4Zc4rsBYL2MybVh6p2q1u7S0sK/VZ5t990SHOnl0onuohY7G0uv1age0Z5t79WFk39Tei3ABQIARka9+T9Vb96h9vJPq916hXq9F0qWH/FRY620nFot5yuaa49JKm/wNybT1NhXdMHkp7R10ycUGYcLDAAl4+yIEdNTY/yjaox/VLYYU5ZdpCLfoqKYlrWx7+awZpF62ZjSoqm0KNTQgpqmpwtKqGRMrlpyStXKSTWqB5XEKyVUAfwjAGBkmWhFler9ku733Qr6oOm7AWDE8BAgAAABIgAAABAgAgAAAAEiAAAAECACAAAAASIAAAAQIAIAAAABIgAAABAgAgAAAAEiAAAAECACAAAAASIAAAAQIAIAAAABIgAAABAgAgAAAAEiAAAAECACAAAAASIAAAAQIAIAAAABIgAAABAgAgAAAAEiAAAAECACAAAAASIAAAAQoMR3A0DIKjbRbrtN2+y0mrauaMQzeaFCLdPRMXNKj5ljSk3muyUgWAQAwJM9xXa9MH+eaqr4bsUtK12sbfo+Xa6vxvfrQHTUd0dAkAgAgAdXFpfq+/LLfbfhVV1V/VD+vRpTQ/dGj/hupyTGdwPAOY32fCP6zsp0ffcw7HbaC4If/M/0/fnl2lFs8d1GKaysu1rWtJ0Vw0ggAGBVjLTsu4dhZiS9MHuu7zYGzguL547mtbK78V9RZBfcVcMoIABgVQprlnz3MMwusJs0oabvNgbOBjumLXbKdxt9Zx0GAGsMAQCrQgDA6kTFMd8tDLNRHOT65YJR/N64TAC5PeCuGEYBAQCrEmXFQ757GGYNW/PdwsBq2LrvFvouz90FABPbLzorhpFAAMCq1HY+74Cknu8+hlUq3ns/l96orQlg5fQZgA2XRF92Vw2jgACAVXm1+dPcSPf57mNYzUc8Q3kuCyP2eEmeF85qmdi0Xm32E8yxKgQArJqVvuC7h2F11JxQptx3GwMnU64jOum7jb4qHP41x5G53101jAoCANbAfN53B8Oqp0wPRI/5bmPg3Bc/NnLLAueZu/n/SOaTzophZBAAsGq9PPuceA5gze6KHtITZtZ3GwPjpJnTvdHDvtvoLyvlmbtbAO1e5f3OimFkEACwalfv2j8rI6441qgwVp+Nv6Yj0QnfrXh3JDqpz8RfVS53g6ULWeru/yeKzbG3Pu8bjzsriJHBXgBYE1PoQ9bop3z3MaxSk+mO+Gu6yGzVc+zFurDYNJor4Z2FldUT0ZweNI/pYPSE73ZK4TIAxFF0u7NiGCkEAKxJy1Q+3lA6K2mT716G2cHouA7quOI4UlMNVe1o/5PsmUwttUfuiv9M1loVjt7/N0a2kjbf4aQYRk4oFx0owa1Hr7zBylznuw9gkPQ6udKum4CTVKLPXbN3/8ucFMPI4RkArJmNzB9IYgcy4FusldKeo9kNI1XryVvcFMMoIgBgzV6/9e4Tkv7Qdx/AoMi6ubPV/5Ik/vLP77zrm26qYRQRALAuaaX7dsmyQRCCVxRWPUdT/4pUVGvxv3BTDKOKAIB1edOWB5eM1bW++wB8Szvulv6rVqI/+vlddx1xVhAjiYcAsW7Wytx69AWfkNFP+u4F8CFLrbotNysZRrFm3nzZ/RcaM8KvUsAJZgCwbsbIKtabJB333Qvgmi2kXtvN4G+MiiiJf4TBH/1AAEBfvH7r3ScKmZ+X2OkGYem2M1kXD/4ZKUmi/3jNnnvvdlANAeAWAPrq1qMvuNpKH/DdB+BCt50rc/TaX1Ixt1+z976fdVIMQWAGAH31uu13/5GVfst3H0DZeh13g3+lEn2RwR/9xgwA+s5amduOvuAPrNG/9t0LUIa0W6jn6Kn/qGK++eZL73su9/3Rb8wAoO+Mkf257Xe/1ci+z3cvQL+lPXeDf5xEDx+79L4rGPxRBgIASmGM7CPb7vnXRvY2370A/ZL1CvXajq78E3Nocq+u2Gfk5hUDBIcAgNLsMypq277nF6z0Id+9AOuV9Qp1HQ3+cRIdqSYXXP5qs7/npCCCxDMAKN3t9l/G7aMP/HdjzKt99wKsRZYW6rYKuVjoP66YY7bZ2PuW7V9rlV4MQSMAwInb919R7UzGf8ZqgRg2eXr6yt/Fu/5RbE51TW/Pv73s4cXyqyF0BAA4c/v+K6rdqfhjVvpx370Az0aWWnXbmZMd/uLYzI7V4r2vvfieufKrAQQAOPa+o1c1G0r/UtLLfPcyKBqqaVsxrTHbVGXEH8tJVWjFtHTMnFLbdH23c155Vqiz4uiBv9gsTiTR5a/Zc+8TTgoCIgDAg/cdvarZVPrXVvph3734NG6buqp4ji4qtvpuxTkrq4PRE/p69ICWTdt3O98lz6w6K6429zFLzap9zut238+22nCKAAAvbjv1DzcU3fanJL3Idy8+XGg36SXZP1BNFd+teNVVqs8lX9MJMziz3kV++srfxT1/E6sdF5Urrvmeuw+UXw14qtGeb8TA+rnp/7WYd6NXGulrvntxbYPG9NLsquAHf0mqqaKXZVdpQmO+W5EkFblV2+Hgn0TRCxj84QsBAN684ZI752NV/omke3334tIL8+eqqsR3GwOjqopemD/Xdxsq8m9N+7sY/I3pNaPKi67eu//h8qsBZ0cAgFev2f61GUX6Ecne57sXFzZoTDuKLb7bGDg7iy1eZwGKQuqsuNnWN4pML6pV/+Hr994dVPDF4CEAwLvXb737RBLbl0t6wHcvZdtebPbdwsDy9b2xhVVnJXU1+Keq2Re/+ZI77yy/GnB+BAAMhNdceO8TmS1+TNJI3w8ds03fLQyscTWc1yyKb93zd7DVjolMpsS8/C277/96+dWAZ0YAwMB44457D0n5SyU97ruX0hgHl5lDyrq4BD9DUUid5Vy2KL+uiWxebRaveMul+79YejHgWSIAYKC8fvv+g3Ee/ag1Ouq7lzIs28F7531QuFwPwH77nr+LeX8VSS35mTfueuDz5RcDnj0CAAbOa3fd+VBU6OWSjvvupd+ORCd9tzCwjho33xtrTz/t7+TK36gwUfKqq3ff+1elFwNWiQCAgfS6HXc/GEX2xySd8t1LPy2blg5GrPb6dI9Hx53MAFgrtZdzFW4GfxvX9JpfvOyej5deDFgDAgAG1s9tveeevIheIWnWdy/99LXofnWV+m5jYHTU09ciBy+AWKnbcnXlb2ylGv3CNZfc/5HSiwFrRADAQHvDzjvvVKSfkOzIbI+6bNq6I/mKOgO+GY4LbdPVHclXteLg6r/bzpRn5Q/+kZGtJvH//aY9+z9YejFgHdgLAEPh1iPP/wFrok9KGvfdS780VNP355drT7FDJrB/ioWxOqAj+kbyTbVVfhDK0kLdloOd/YxUq0f/5o279/9B+cWA9QnrrIOh9sGj3/tDkv2f0oAsHN8nVVW0tdikphqKFftup1S5crXU1vFoVj1Ht0GstWovZ6W/629kFNei/3DNnnt/v9xKQH8QADBUbj3y/B+1JvqEpLrvXjAc0k6uXrf8lX4qtei6q/fsv7H0QkCf8AwAhsrrdtz7KWP0Ft99YDhYa5X2yr/vn1Si9zP4Y9gQADB0CpmR3zMA/ZGl1s1iP3H05fKLAP1FAAAwsrKeg0X+gSFFAAAwkmwhFTl7LwDnQgAAMJLynKt/4HwIAABGkuXqHzgvAgCAkcQEAHB+BAAAI8nFmv/AMCMAABhNjP/AeREAAIwkxn/g/AgAAAAEiAAAAECACAAAAASIAAAAQIAIAAAABIgAAABAgAgAAAAEiAAAAECACAAAAASIAAAAQIAIAAAABIgAAABAgAgAAAAEiAAAAECACAAAAASIAAAAQIAIAACwTnkvP+i7B2C1CAAAsE5WZsl3D8BqEQAAAAgQAQAAgAARAAAACBABAACAABEAAAAIEAEAAIAAEQAAAAgQAQAAgAARAAAACBABAACAABEAAAAIEAEAAIAAEQAAAAgQAQAAgAARAAAACFDiuwFgtXYkrxpbyh9ZiVQf893LuVib9do6cG9qT8367mWYJdo0VY92PSdWY3y1n40rJxXbjTIlX+fkWpmfaF7WlPaXWgfoNwIAhs6lyfW7u8YO7OD/LdVaYh66ZNL8K9+NDLMD8/bD3cxetaYPb+hzM+c2WYvNJdKNn3NWEegDbgEAABAgAgAAAAEiAAAAECACAAAAASIAAAAQIAIAAAABIgAAABAgAgAAAAEiAAAAECACAAAAASIAAAAQIAIAAAABIgAAABAgAgAAAAEiAAAAECACAAAAASIAAAAQIAIAAAABIgAAABAgAgAAAAEiAAAAECACAAAAASIAAAAQIAIAAAABIgAAABCgxHcDwGrFkdqJ9d3FMzPSku8ehp2RlpIhuEyJI7V99wCsFgEAQ6dZ0aP1ivHdxjOyVt/w3cOwa1T0DWMG/+86kh713QOwWkOQrQEAQL8RAAAACBABAACAABEAAAAIEAEAAIAAEQAAAAgQAQAAgAARAAAACBABAACAABEAAAAIEAEAAIAAEQAAAAgQAQAAgAARAAAACBABAACAABEAAAAIEAEAAIAAEQAAAAgQAQAAgAARAAAACBABAACAABEAAAAIEAEAAIAAEQAAAAgQAQAAgAARAAAACBABAACAABEAAAAIEAEAAIAAEQAAAAiQWesH3/3udzeSleQHC1u8xMhcYWQut7LTksYkTfSvReCpprdeqB/7uZ/13cYz+uqnP6eH7rzbdxtD7bLve4Fe+IqX+m7jGf3NbR/RqeNP+G4DjllrZa1VUeTK81xpnint9ZRmqay1fa1lZKyJjJUxaRzFp6IoeiSO409kjey/7tu3b3Ytx0xW+4FbbrjlBwtTXKNl/Z9Wdtx8K0NY9fd/FgCAQWaMkTFGURQpSSqqSVLzdDDodDtqd1pK07QvtayssYU1kmpFnm+XtF3SPzYt87v7fuU3Hokrye9d987r3reaYz7rAHDLDbf8YGGL3ypU/DBjPQAAZ2eMUaPeUKPeUK/X09LKorIsK6WWlTW9tLdXae//+41fvv53kmrl165753UfeDaffcYAcPO+mzfYyL6nUPEGmbXfMgAAIDTValWbKtNqd9paXlnq+62BM6VZOpnl2fvf/u/3/YeJ+oaX/8pv/sqR8/358z4EePMNN3+/jezXJb1R63heAACAUBlj1Gw0tWlqWkm86jvvq2KtVbfXvXx2+dSBG3/1xvM+LHXOAHDLO255uZX9nKRL+90gAAChSeJEU5ObVKlUS69VFEWl3Wl9+MZfvfE/nevPnDUA3PyOm3+ssMVfS9pQWncAAAQmiiJNbZxSpVIpvZaVVbvT+s3fetuNv3bWXp7+hffse88/sNb+maTyIwoAAIExxmhq4ybFcVx6LSurlVbrd2781Rv/r6f/3lMCwPt+530boyj6U0njpXcFAECgjDGa3DglY8p/vM7Kmk6v/cc3XnvjrjO//pQA0Ek7N0naU3o3AAAELokTjY+5ud4uiqKSd7PPnPm1bweAm2+4+R/L6vVOOgEAAGo2xlRJyn8eQJJ6vd5lN/7ajb/45K+/HQAKFb8tXvUDAMCpsaabWQBrrXpZ93ef/HUkSTffcPNLjMwPOukAAAB8W7VadTYLkKXZxG++7Tf/H+lbAcDKvtlJZQAA8BRPLh3sSpamvyJJ0X/e95/HJf0zZ5UBAMBT1Ot1Z7V6aW/P7/3739scZXH2w5KazioDAICnMCZydhvAyqodt6+JZPUSJxUBAMA5Vavu1t8r8vynIyt7pbOKAADgrJKk3I2CzmRtcUkUKbrMWUUAAHBWcck7BZ4pt8VUZGU3O6sIAADOKorOuUFv3xV5UYkkjTmrCAAAzipysC/At1mZSJKbxw4BAMA5Weuwlux3bwcMAABGHwEAAIAAEQAAAAgQAQAAgAARAAAACBABAACAABEAAAAIEAEAAIAAEQAAAAgQAQAAgAARAAAACBABAACAABEAAAAIEAEAAIAAEQAAAAgQAQAAgAARAAAACBABAACAABEAAAAIEAEAAIAAEQAAAAgQAQAAgAARAAAACBABAACAABEAAAAIEAEAAIAAJb4bKEue50qzVHmer/tYURSpWq0qjuI+dAYAKEue5+qlPRVFse5jxXGsSlJRHI/muX/kAsBKa0UzczNqd9qy1vb12M1GU9OT0xofG+/rcQEA67PcWtapuVNqtVt9Pa4xRo16Q5unNmusOdbXY/s2OgHASsdnjmtuYa60Eq12S612S5MbJrV1y1YZY0qrBQB4ZtZaHTtxTAtLC6Udv9Vu6WD7oKYmp7R1eqs0Iqf+kXkGoOzB/0zzi/M6duKYk1oAgHM7fvJ4aYP/083Nz+n4qeNOarkwEgFgeWXZ2eD/pIWlBS2tLDmtCQD4jsXlRc0vzjutOTc/p5XWitOaZRmJAHBq7pSXujOzM17qAgA8nvvnRuPcP/QBIMsytTr9fejj2ep0O0qz1EttAAhZmqbqdDtearfarb68Yebb0AeAXtrzW7/ntz4AhMj3ub+bdr3W74ehDwD9ftVv1fULv/UBIESFXf97/usxCuf+oQ8ASeL3TcakMjpvUgLAsEhiz+d+z2NPPwx9AKhVa95+EKIoUq1a81IbAEJWr9W9rdCXJMlInPuHPgBI0sYNG73UndwwyWJAAOCBMUYbJzyd+ycmvdTtt5EIANNT06okFac1kyTR5qnNTmsCAL5j89Rm5zPA1UpV01PTTmuWZSQCQBzF2rl9p7N7MnEca9e2XSO7QQQADIM4jrVz205n5+IkSbRj2w5F0UgMnaMRACSpXq1r987dGm+Wu1HPWHNMl+y6RPVavdQ6AIBn1qg3tHvnbo01yt2oZ3xsXJfsvET16uic+4f/McYzVJKKdm3fpU63o+WVZfV6PWVFtu7jxnGsaqWqibEJBn4AGDDVSlUX7bhInW5HSytL6qW9vizUk0SJqtWqxsfGR/LcP1IB4En1Wn0k/7IAAOfGuX91RuYWAAAAePYIAAAABIgAAABAgAgAAAAEiAAAAECACAAAAASIAAAAQIAIAAAABIgAAABAgAgAAAAEiAAAAECACAAAAASIAAAAQIAIAAAABIgAAABAgAgAAAAEiAAAAECACAAAAASIAAAAQIAIAAAABIgAAABAgAgAAAAEiAAAAECACAAAAASIAAAAQIAIAAAABIgAAABAgAgAAAAEiAAAAECACAAAAASIAAAAQIAIAAAABCjx3QDOrbCFVlorStNUeZ7Lyq7reEmcqFqtqtloKjJkPwCnFbZQq91Sr9dTlmfrOpaRURzHqlQqGmuOca4ZYASAAVQUhWbmZjS3MKeiKPp+/CiKND05rempaRlj+n58AMOhsIVOzZ3S7PxsaeeaTRs3aXpqWlFEEBg0BIABk2WZDh49qG6vW1qNoih0cvakllvL2rVtl+I4Lq0WgMGU57kOHTukdqddWo0nL2aWVpZ00faLlCQMOYOESDZAClvo0LFDpQ7+Z2p32jp8/LCsXd+tBQBDxkqHjx8udfA/U7fX5VwzgAgAA2Rufk6dbsdpzVa7pYWlBac1Afg1tzjcNNHUAAAMbklEQVSnVrvltGa709bc/JzTmjg/AsCAsNZqdmHWS+3ZeT91AfjhayCeXZhlFmCAEAAGRC/tKcvW9/TtWnV7XaVZ6qU2ALfSLFU3dXObcZBq47sRAAZEmvodgH3XB+CG73/rWernQgffjQAwINb7jj8AAKtBABgQlUrFa/1qpeq1PgA3Konfc43vcx2+gwAwIGqVmrd/mNVqlfdzgUBUKhVVq34Cf5IkXGwMEALAgDDGaGpyykvtzVObvdQF4Mf05LS3uqw+OjgIAANk08ZNatQbTmuONca0YXyD05oA/JqcmNRYc8xpzUa9oamNfi5ycHYEgAFijNHObTtVr9Wd1Gs2mtqxdQeJHAiNkXZs3aFmvemkXL1W186tOznXDBhu/A6YJE508c6LS92gI45jbZrcxHQcELA4inXRjos0Oz+rmbmZcjcem5yWiTjXDBoCwACKTKQtm7Zoemr69BadaU+2WP9rgsYY1ao1NRtNBn4AMsZoempamyY3qdVuqdvr9mWlPhMZVStsPT7oCAADLDKRxpvjvtsAMOKMMRprjjl/LgB+Ec0AAAgQAQAAgAARAAAACBABAACAABEAAAAIEAEAAIAAEQAAAAgQAQAAgAARAAAACBABAACAABEAAAAIEAEAAIAAEQAAAAgQAQAAgAARAAAACBABAACAABEAAAAIEAEAAIAAEQAAAAgQAQAAgAARAAAACBABAACAABEAAAAIEAEAAIAAEQAAAAgQAQAAgAARAAAACBABAACAABEAAAAIEAEAAIAAEQAAAAgQAQAAgAAlvhsoQ7vT1nJrWb1eT3mRr/t4URSpVqlpfGxcjXqjDx0CAPqt3WlreWVZ3bSroijWfbw4ilWtVEf23D9SASDNUh07cUwrrZW+H3tJS5qZm1Gz0dT2C7arUqn0vQYAYPV6aU/HThxTq90q5fgzczMaa45p25ZtI3XuH5lbAJ1uRwcOHShl8D9Tq93SgUMH1Ol2Sq0DAHhm7U5bjx1+rLTB/0krrRU9dvgxdXvdUuu4NBIBoCgKHT52WHm+/un+ZyMvch06eshZPTxVlqW+W3hW0rTnu4Whl6XD8Xc9LH2OmjzPdfi4u3N/lmc6dOxQX24tD4KRCAAzczNKHQ8KWZ5pZm7GaU2c1l4qd5anX9rLw9HnIGuvDMf3sLW07LuFIM3MzijLMqc10zTVqblTTmuWZSQCwMLigre61lovtUPW63bV6w7+NNzKwqLvFobeMHwPe92u0h6zPa5ZazW/NO+l9sKSnzGn34Y+AHR7XWW52wT4pLzIeRbAk2MHHvfdwnktzc1reX40ThI+Lc3Na2nOz0n+2Tr66GO+WwhSp9vpy5P+a5FlmXojEPqGPgC4nv55ujwbjXtBw+bII4/6buG8Dg94f8PkyCMHfLdwXkcHvL9R5fvc6/q2cxmGPgCYyARdP1SHHnx4YK+wiyzXQ1+/y3cbI+PBr9+pYkAfuF1ZWNThhx7x3UaQfJ97o2joh8/hDwDVStVv/arf+qEqikL3/N2XfbdxVt+8826tLC75bmNktBaX9NCd9/hu46zu+uLf8TaQJ77Pvb7Hnn4Y+gCQxImajaaX2vVaXZVkdBaFGDaP3fegHn/gm77beIr5kzO650uDGUyG2d1f+nvNnxyst24OffNhPX7/YP38haSSVFSv1b3UbjaaiuPYS+1+GvoAIEmbpzb7qbvJT118x//65Kc1+8QJ321Ikrrttr7wsb/knfASZL1UX/jYX6rbbvtuRZI0+8QJ/f1f/43vNoLn6xzsa8zpt5FYCnisOaapySnNzc85q7lxYqMmxiac1cPZ5Wmmz3304/qRn32VNm6e9tZHr9vV5z768YF4bS3Pc7U77b69HZPEiRr1hvcrnpWFRd1x+1/o5a/+56o1/K3LvnhqTp//808oT/0+gAxpYmxCkxsmNb/o7k2RTRs3aaw55qxemcxNN9w0Gi+yW+mJU09odn629FKTGya1dctWGcMDgIOi1mh4CwG9blefvf0vvM9E9Ho9nTh1Qsut5b6vT2GM0VhzTBdOX+j93uvkls3eQsDiqTl95vY/U2el3GVn8exZa3X85HEnIWDTxk26cPOFUkmn/qIodPKUu/NI/OMv+/F9zqqVyUjjzXGNNcaUZZnSvL/TsMYYNRtNbbtgmzZNbmLwHzB5lunggw9r+57dqjfdPRMyKIP/4vKiDh47WOo65b20p4XFBVWrVdWqtdLqPJNOq6Vjjx3URc/Zq8ThxiwM/oPJGKOJsQk1602lWdr/dWHM6Vnm7Rds19TGqdIGf+l0mGm13a1+OTozAE9TFIV6aa8vT+hGUaRqpep9ChTPzOVMwKAM/q12SwePHnS2KqUxRhdtv8jbw7dPcjkTwOA/PPI8Vy/t9Wc74Pj0dsCuXvlzPQMwsgEA4XIRAgZl8LfW6tGDj6rneOOhSlLRpRdf6n0mzEUIYPCHK64DwEi8BQCcqdtu6zMf+XMtzJSzYcegDP6StLS85Hzwl06vgra04n+tg/mTM7rj9r8o7e0ABn+MMgIARlJZIWCQBn9JWmr5G4SXVwZjB7yyQgCDP0YdAQAjq98hYNAGf8nveuSDtBZ6v0MAgz9CQADASOtXCBjEwV+S5PEJnkHbCrtfIYDBH6EgAGDkPRkC5k6cXNPnO62W7vjInw/e4C8pSfyt5TWIy2DPn5zRZ//0Y+q01jZ4z504qU9/+KMM/ggCAQBB6Lbb+vSHPqpD33x4VZ+bO3FSn7ztI2sOD2Ubb477qz3mr/b5zJ04qU9+8MM6dfyJVX3u4IMP6dMf+ujALDcMlG10FgICnkFRFDr44EOaPzGjyc3T510wqL2yoru+8Hf66qc+q16nvMV11qtaqWphcUGFXf87z6uRxMlAr4aZ9np6bP8Daq+0NHXhFlXOs3rhwswpfeWTd2j/l7/Sl3fHgbViISDAkcktm7V190WamNyoar2urJdqZWlRTzx+WDNHjw3cPe5zWVxa1NETR50uBLT9wu3aML7BSb31MsZo845t2nrRLjUnJpRUK+p1OlqaX9CxA4+X9roosFqu1wEYic2AgLWYPzkzcFvMrsWGiQ1Ks1QnHJ04Lth0wdAM/tLpq6qTh4/q5OGjvlsBBgoBABgB01PTqtfqOj5zXL1eOQsD1ao1Xbj5wpHZCQ0IHQEAGBFjzTHt2bVHnW5H7XZbaZ6u+552FEVKkkRjjTHVqrWBvecPYPUIAMAIMcaoUW+oUXe/VS6A4cJrgAAABIgAAABAgAgAAAAEiAAAAECACAAAAASIAAAAQIAIAAAABIgAAABAgCJJme8mAACAO0ZGkaRl340AABA6pzuQGtlIEnthAgDg2Xr37lgNY0wWSXrIWUUAAHBWeZ47qxXH8Vxkrb3HWUUAAHBWWe7ukbzIxI9GkaLPO6sIAADOqpd2ndUyifmrqF1vf0FS21lVAADwFEVRKE1TN8WMVDSK90dve9vbliR93E1VAADwdN1ux1mtSlJ9bN++fSciSYpM9AFnlQEAwFO0O+4m4itJfJMkmSe/cNPbb/qSjH7AWQcAAEDdXlfzC3NOaiVxsnzDe98xIZ2xFHARFddKcrgKAQAAYbPWamXFzXp8xhhVKsl/+vavz/zNm95x022yeq2TTgAACFyr3dLS8qKTWrVq7ZHf+P19e5/89VM2Ayry4q2SDjjpBACAgOVZpuWVJSe14jjOoih+5Zlfe0oA+OV9vzxvZX9WUstJRwAABMhaq7nFeSfr/xsZVWrVN1z3ruseOfPr37Ud8C9d/0tfkdG/lOTohUQAAMJhrdX8wpxyByv/GRk1a2PXX//O6297+u99VwCQpH933b/7H8aYn5DkZm4CAIAAWGs1tzCnXtorvZaRUb3R2Hft7137jrP//nm894b3/h9G5nZJu8toDgCAUGR5pvnFeeVZ+Vf+URxl1VrtDWe78n/SeQOAJP3hb//hVJqmN0t67bP58wAA4Kla7ZaWV5ZKv+dvjFE1qT4am+Tlv/77v/74ef/ssz3oe97xnpfGNv4tK/vi9bcIAMDo66U9La8sOVnnP07ipWpSufa6d/3GLc/mz6/6iv6mt9/0MhldLemfS2qs9vMAAIwya6063Y7anVb5A785vbZ/JYlv+vXfvf69q/zo2rzrXe8aq7fqP5wrf4kx5kpJeyVtkbRBUrzW4wIAMCyKopC1hbI8V5Zl6qU9pWmv71P9xhhJslEUpbGJFkwUP2IS81dFo3j/vn37TqzlmP8bHXODT3/kP30AAAAASUVORK5CYII=;" vertex="1" parent="1">
          <mxGeometry x="64" y="422" width="40" height="40" as="geometry" />
        </mxCell>
        <mxCell id="3M7Vr9DxULC0OH6YLq8r-14" style="edgeStyle=orthogonalEdgeStyle;rounded=0;orthogonalLoop=1;jettySize=auto;html=1;exitX=1;exitY=0.5;exitDx=0;exitDy=0;" edge="1" parent="1" source="3M7Vr9DxULC0OH6YLq8r-7" target="3M7Vr9DxULC0OH6YLq8r-2">
          <mxGeometry relative="1" as="geometry" />
        </mxCell>
        <mxCell id="3M7Vr9DxULC0OH6YLq8r-7" value="Soil Moisture Sensor 2&#xa;Depth 2: e.g. 20cm&#xa;" style="shape=image;imageAspect=0;aspect=fixed;verticalLabelPosition=bottom;verticalAlign=top;image=data:image/png,iVBORw0KGgoAAAANSUhEUgAAAgAAAAIACAYAAAD0eNT6AAAACXBIWXMAAA7DAAAOwwHHb6hkAAAAGXRFWHRTb2Z0d2FyZQB3d3cuaW5rc2NhcGUub3Jnm+48GgAAIABJREFUeJzt3WmYZVd93/vf2nufsaq6q7q6pR6lVqslDELYjrgk2I4ZjE3seEi4Cc4Fgw1I4JtLEtuJzZPIkhshDxgbkOT4XsBJHiM5gIxt4LHjYEAMBptcJk2tAQ0t9azu6prrTHtYedEIWqK7pao6e61zzvp+nkcvurrP/v9VXb3Xb6+991pGwICxVuaDh59/ZRRHLyqsnmMiPUdWeyWNSZqQtFFS5LdLDD4ra42stZKVikIqCiubWxWFVZHbvlYzRlbG5EY2V2TmIumgjHkgSczHf+Hiez9mjIq+FgTWyfhuAJCk209cMd7N41dZa35Ssi+VtMV3TxhttpDyvFCWWhWplVV/A8GZjFFhInPERNH/qCu6/vV77z5RWjHgWSIAwKtbjzz/B6yJflHSq3T6Ch9wzlqrPLVKe0XfZwaezhjZKI4ejWO980179n+g1GLAeRAA4MUHj37vD8nat8noJ333ApypyK16nVx5Vm4QkKQoNotxZG6+eu/+60ovBjwNAQBO3Xroir02jv9A0it99wKcT54V6rYL2aL8IBAn0VxUMa+7eve9f1V6MeBbCABw4vb9V1Q7U/H1kn5VUtV3P8CzYqVet1DaLU7/omRJxfztxq75iVdfsX+59GIIHgEApfuTo99/cWbzDxujf+S7F2Atisyq08pPv1FQsiiKVpIx/dSbdu7/bOnFEDRepUKp/vjIlT+TK7+LwR/DLEqMGhOx4qT8a6aiKMbS5eIzf/TIFW8vvRiCxgwASvPBY1f+gqz5gKTEdy9Av3RbubLUxSv9RklVt11z6X2vc1AMASIAoBQfPPqCayXd6LsPoAy9dq6052ZdnziJ/ubNl+3noVn0HQEAfXfrkSvfao25xXcfQJm67VyZoxBQqUSfuHrv/p9xUgzB4BkA9NUHj175GmvMTb77AMpWa0SKK25OoWla/PQHHr6CRYPQV8wAoG/++PCVLzaR+bykiu9eACes1F7JSl898ElJPXnjNZfc89+cFMPIIwCgL/7k8Sun8or5uqTdvnsBXCoKq/Zy5mKZAJnIZCaKvuctl937SPnVMOq4BYC+yCvmv4nBHwGKIqNaPXZSyxY2kS2+4KQYRh4BAOv2x8de8C8k8YASgpVUIydrBEhSkdvtH3joit92UgwjjVsAWJf3Hb2q2VB6n6SLffcC+FQUVu2lzEktEynfUIl3vGbPvU84KYiRxAwA1qWu9Fox+AOKIqNKzdWtAMUrRfGnTophZDEDgDW7ffaqjZ1O+rikjb57AQaBLaT2Uibr4IlAY2Szon7JW5/3jcdLL4aRxAwA1qzbTX9JDP7At5lIiqturquslanVuv/FSTGMJGYAsCY3P7S3NjnWPCJp2ncvwCBx/CxAsSmLNrJ9MNaCGQCsycbx5k+JwR/4LlFkFCduTq22ULRQ1bVOimHkEACwVuxQBpyDq9sAklRY+3pnxTBSCABYtdtnr9porH7cdx/AoKo4mgGQTq8LcOtjz93mrCBGBgEAq9Ztpy8R6/0D52akKHY3C9DJ47c4K4aRQQDAqlmjl/nuARh0rnYKlCRZ+0/dFcOoIABgLV7iuwFg0MUOZwCKwj7PWTGMDAIAVmWfVSTpub77AAady1sANldzn1XirCBGAgEAq3LZiSt3S6r77gMYdMac/s8FK6uLHn/+i9xUw6ggAGBVitxc7rsHYFgYh7MAWV5waw6rQgDAqlhjt/ruARgWTk+wNmJTLqwKAQCrYgqN++4BGBoOF1s3spPuqmEUEACwKtaYCd89AMPCuHoIQJK1IgBgVXhqFKtiZBt2CPaQKopJdds/pDzbrTy/QNby3OKwK2yszLbVza2WupMq1CmtVhR1VK88obHaAU1v+KKSeGFtB3IYAIyxTWfFMBIIABgpvd73aXnhLUq7L5K1se92UIKKpKlI6tgDOtmKtdwt99a3Mbmmxv9/XbL1/9XG5l2r/LQtpSegHwgAGAlFsUGLc9er03qF71bggJHUMJdo15jUqj+iQ0s7VBTlzPJYG2t26cWaXXqxtkx+Ss/d+XYl8VIptQCXeAYAQy/Ldmv2idsY/ANkJI3Fe7R7oqZqXN4tgSednP9RffWhP1Gru7v0WkDZCAAYakW+WbMn3q8su8h3K/CoHksXT9QUOzijtboX6xuP/Bd10wvLLwaUiACAoWVtTbMzN6vIL/DdCgZAJZJ2jbm5595NN+uex96jwtac1APKQADA0Gotv1ZZjz1Q8B3NijTlaExebF2hwyf/lZtiQAkIABhKttio5YU3+G4DA2hzwypy9PbdYyfepDTf4KYY0GcEAAylduuVspY1ifDdKpE0UXFTK8s36sT8K90UA/qMAICh1G2/zHcLGGDjVXfv388s8LOI4UQAwBAy6nau8t0EBtiYoxkASZpfeaGGYXVM4OkIABg6RT4lqeq7DQyw2LjbhycvasqyjY6qAf1DAMDQKYrNvlvAgDOSEodnt27Gq6gYPgQADB1rufrHM3P1JoAkFQU/kxg+BAAAAAJEAAAAIEAEAAAAAkQAAAAgQAQAAAACRAAAACBABAAAAAJEAAAAIEAEAAAAAkQAAAAgQAQAAAACRAAAACBABAAAAAJEAAAAIEAEAAAAAkQAAAAgQAQAAAACRAAAACBABAAAAAJEAAAAIEAEAAAAAkQAAAAgQAQAAAACRAAAACBABAAAAAJEAAAAIEAEAAAAAkQAAAAgQAQAAAACRAAAACBABAAAAAJEAAAAIEAEAAAAAkQAAAAgQAQAAAACRAAAACBABAAAAAJEAAAAIEAEAAAAAkQAAAAgQAQAAAACRAAAACBABAAAAAJEAAAAIEAEAAAAAkQAAAAgQAQAAAACRAAAACBABAAAAAJEAAAAIEAEAAAAAkQAAAAgQAQAAAACRAAAACBABAAAAAJEAAAAIEAEAAAAAkQAAAAgQAQAAAACRAAAACBABAAAAAJEAAAAIEAEAAAAAkQAAAAgQAQAAAACRAAAACBABAAAAAJEAAAAIEAEAAAAAkQAAAAgQAQAAAACRADA0ImiJd8tYAhkhbtaSbLorhjQJwQADB0TnfTdAgaclZQ7rFdL+JnE8CEAYOhEUUtRPOu7DQywXq7TKcCBamVGcdR2UwzoIwIAhlK9/gXfLWCALafuam2e4GcRw4kAgKFUa37WdwsYYEs946zW5o13OKsF9BMBAEOpVv9bJZUHfLeBAdTKTv/nwnj9QW2e+JKbYkCfEQAwpApNTN7iuwkMGCvpiZa7q/+9O94jGYevGwB9RADA0KrVv6SxiT/x3QYGyExbaju6+t+15VZtGv97N8WAEhAAMNTGN75btcbf+m4DA2ChJ8203Vz9T2/4gvZue7eTWkBZCAAYasbkmpz+JTXHP+S7FXg025WOLrt582/H9Ef1gt2/LMPUP4Zc4rsBYL2MybVh6p2q1u7S0sK/VZ5t990SHOnl0onuohY7G0uv1age0Z5t79WFk39Tei3ABQIARka9+T9Vb96h9vJPq916hXq9F0qWH/FRY620nFot5yuaa49JKm/wNybT1NhXdMHkp7R10ycUGYcLDAAl4+yIEdNTY/yjaox/VLYYU5ZdpCLfoqKYlrWx7+awZpF62ZjSoqm0KNTQgpqmpwtKqGRMrlpyStXKSTWqB5XEKyVUAfwjAGBkmWhFler9ku733Qr6oOm7AWDE8BAgAAABIgAAABAgAgAAAAEiAAAAECACAAAAASIAAAAQIAIAAAABIgAAABAgAgAAAAEiAAAAECACAAAAASIAAAAQIAIAAAABIgAAABAgAgAAAAEiAAAAECACAAAAASIAAAAQIAIAAAABIgAAABAgAgAAAAEiAAAAECACAAAAASIAAAAQoMR3A0DIKjbRbrtN2+y0mrauaMQzeaFCLdPRMXNKj5ljSk3muyUgWAQAwJM9xXa9MH+eaqr4bsUtK12sbfo+Xa6vxvfrQHTUd0dAkAgAgAdXFpfq+/LLfbfhVV1V/VD+vRpTQ/dGj/hupyTGdwPAOY32fCP6zsp0ffcw7HbaC4If/M/0/fnl2lFs8d1GKaysu1rWtJ0Vw0ggAGBVjLTsu4dhZiS9MHuu7zYGzguL547mtbK78V9RZBfcVcMoIABgVQprlnz3MMwusJs0oabvNgbOBjumLXbKdxt9Zx0GAGsMAQCrQgDA6kTFMd8tDLNRHOT65YJR/N64TAC5PeCuGEYBAQCrEmXFQ757GGYNW/PdwsBq2LrvFvouz90FABPbLzorhpFAAMCq1HY+74Cknu8+hlUq3ns/l96orQlg5fQZgA2XRF92Vw2jgACAVXm1+dPcSPf57mNYzUc8Q3kuCyP2eEmeF85qmdi0Xm32E8yxKgQArJqVvuC7h2F11JxQptx3GwMnU64jOum7jb4qHP41x5G53101jAoCANbAfN53B8Oqp0wPRI/5bmPg3Bc/NnLLAueZu/n/SOaTzophZBAAsGq9PPuceA5gze6KHtITZtZ3GwPjpJnTvdHDvtvoLyvlmbtbAO1e5f3OimFkEACwalfv2j8rI6441qgwVp+Nv6Yj0QnfrXh3JDqpz8RfVS53g6ULWeru/yeKzbG3Pu8bjzsriJHBXgBYE1PoQ9bop3z3MaxSk+mO+Gu6yGzVc+zFurDYNJor4Z2FldUT0ZweNI/pYPSE73ZK4TIAxFF0u7NiGCkEAKxJy1Q+3lA6K2mT716G2cHouA7quOI4UlMNVe1o/5PsmUwttUfuiv9M1loVjt7/N0a2kjbf4aQYRk4oFx0owa1Hr7zBylznuw9gkPQ6udKum4CTVKLPXbN3/8ucFMPI4RkArJmNzB9IYgcy4FusldKeo9kNI1XryVvcFMMoIgBgzV6/9e4Tkv7Qdx/AoMi6ubPV/5Ik/vLP77zrm26qYRQRALAuaaX7dsmyQRCCVxRWPUdT/4pUVGvxv3BTDKOKAIB1edOWB5eM1bW++wB8Szvulv6rVqI/+vlddx1xVhAjiYcAsW7Wytx69AWfkNFP+u4F8CFLrbotNysZRrFm3nzZ/RcaM8KvUsAJZgCwbsbIKtabJB333Qvgmi2kXtvN4G+MiiiJf4TBH/1AAEBfvH7r3ScKmZ+X2OkGYem2M1kXD/4ZKUmi/3jNnnvvdlANAeAWAPrq1qMvuNpKH/DdB+BCt50rc/TaX1Ixt1+z976fdVIMQWAGAH31uu13/5GVfst3H0DZeh13g3+lEn2RwR/9xgwA+s5amduOvuAPrNG/9t0LUIa0W6jn6Kn/qGK++eZL73su9/3Rb8wAoO+Mkf257Xe/1ci+z3cvQL+lPXeDf5xEDx+79L4rGPxRBgIASmGM7CPb7vnXRvY2370A/ZL1CvXajq78E3Nocq+u2Gfk5hUDBIcAgNLsMypq277nF6z0Id+9AOuV9Qp1HQ3+cRIdqSYXXP5qs7/npCCCxDMAKN3t9l/G7aMP/HdjzKt99wKsRZYW6rYKuVjoP66YY7bZ2PuW7V9rlV4MQSMAwInb919R7UzGf8ZqgRg2eXr6yt/Fu/5RbE51TW/Pv73s4cXyqyF0BAA4c/v+K6rdqfhjVvpx370Az0aWWnXbmZMd/uLYzI7V4r2vvfieufKrAQQAOPa+o1c1G0r/UtLLfPcyKBqqaVsxrTHbVGXEH8tJVWjFtHTMnFLbdH23c155Vqiz4uiBv9gsTiTR5a/Zc+8TTgoCIgDAg/cdvarZVPrXVvph3734NG6buqp4ji4qtvpuxTkrq4PRE/p69ICWTdt3O98lz6w6K6429zFLzap9zut238+22nCKAAAvbjv1DzcU3fanJL3Idy8+XGg36SXZP1BNFd+teNVVqs8lX9MJMziz3kV++srfxT1/E6sdF5Urrvmeuw+UXw14qtGeb8TA+rnp/7WYd6NXGulrvntxbYPG9NLsquAHf0mqqaKXZVdpQmO+W5EkFblV2+Hgn0TRCxj84QsBAN684ZI752NV/omke3334tIL8+eqqsR3GwOjqopemD/Xdxsq8m9N+7sY/I3pNaPKi67eu//h8qsBZ0cAgFev2f61GUX6Ecne57sXFzZoTDuKLb7bGDg7iy1eZwGKQuqsuNnWN4pML6pV/+Hr994dVPDF4CEAwLvXb737RBLbl0t6wHcvZdtebPbdwsDy9b2xhVVnJXU1+Keq2Re/+ZI77yy/GnB+BAAMhNdceO8TmS1+TNJI3w8ds03fLQyscTWc1yyKb93zd7DVjolMpsS8/C277/96+dWAZ0YAwMB44457D0n5SyU97ruX0hgHl5lDyrq4BD9DUUid5Vy2KL+uiWxebRaveMul+79YejHgWSIAYKC8fvv+g3Ee/ag1Ouq7lzIs28F7531QuFwPwH77nr+LeX8VSS35mTfueuDz5RcDnj0CAAbOa3fd+VBU6OWSjvvupd+ORCd9tzCwjho33xtrTz/t7+TK36gwUfKqq3ff+1elFwNWiQCAgfS6HXc/GEX2xySd8t1LPy2blg5GrPb6dI9Hx53MAFgrtZdzFW4GfxvX9JpfvOyej5deDFgDAgAG1s9tveeevIheIWnWdy/99LXofnWV+m5jYHTU09ciBy+AWKnbcnXlb2ylGv3CNZfc/5HSiwFrRADAQHvDzjvvVKSfkOzIbI+6bNq6I/mKOgO+GY4LbdPVHclXteLg6r/bzpRn5Q/+kZGtJvH//aY9+z9YejFgHdgLAEPh1iPP/wFrok9KGvfdS780VNP355drT7FDJrB/ioWxOqAj+kbyTbVVfhDK0kLdloOd/YxUq0f/5o279/9B+cWA9QnrrIOh9sGj3/tDkv2f0oAsHN8nVVW0tdikphqKFftup1S5crXU1vFoVj1Ht0GstWovZ6W/629kFNei/3DNnnt/v9xKQH8QADBUbj3y/B+1JvqEpLrvXjAc0k6uXrf8lX4qtei6q/fsv7H0QkCf8AwAhsrrdtz7KWP0Ft99YDhYa5X2yr/vn1Si9zP4Y9gQADB0CpmR3zMA/ZGl1s1iP3H05fKLAP1FAAAwsrKeg0X+gSFFAAAwkmwhFTl7LwDnQgAAMJLynKt/4HwIAABGkuXqHzgvAgCAkcQEAHB+BAAAI8nFmv/AMCMAABhNjP/AeREAAIwkxn/g/AgAAAAEiAAAAECACAAAAASIAAAAQIAIAAAABIgAAABAgAgAAAAEiAAAAECACAAAAASIAAAAQIAIAAAABIgAAABAgAgAAAAEiAAAAECACAAAAASIAAAAQIAIAACwTnkvP+i7B2C1CAAAsE5WZsl3D8BqEQAAAAgQAQAAgAARAAAACBABAACAABEAAAAIEAEAAIAAEQAAAAgQAQAAgAARAAAACBABAACAABEAAAAIEAEAAIAAEQAAAAgQAQAAgAARAAAACFDiuwFgtXYkrxpbyh9ZiVQf893LuVib9do6cG9qT8367mWYJdo0VY92PSdWY3y1n40rJxXbjTIlX+fkWpmfaF7WlPaXWgfoNwIAhs6lyfW7u8YO7OD/LdVaYh66ZNL8K9+NDLMD8/bD3cxetaYPb+hzM+c2WYvNJdKNn3NWEegDbgEAABAgAgAAAAEiAAAAECACAAAAASIAAAAQIAIAAAABIgAAABAgAgAAAAEiAAAAECACAAAAASIAAAAQIAIAAAABIgAAABAgAgAAAAEiAAAAECACAAAAASIAAAAQIAIAAAABIgAAABAgAgAAAAEiAAAAECACAAAAASIAAAAQIAIAAAABIgAAABCgxHcDwGrFkdqJ9d3FMzPSku8ehp2RlpIhuEyJI7V99wCsFgEAQ6dZ0aP1ivHdxjOyVt/w3cOwa1T0DWMG/+86kh713QOwWkOQrQEAQL8RAAAACBABAACAABEAAAAIEAEAAIAAEQAAAAgQAQAAgAARAAAACBABAACAABEAAAAIEAEAAIAAEQAAAAgQAQAAgAARAAAACBABAACAABEAAAAIEAEAAIAAEQAAAAgQAQAAgAARAAAACBABAACAABEAAAAIEAEAAIAAEQAAAAgQAQAAgAARAAAACBABAACAABEAAAAIEAEAAIAAEQAAAAiQWesH3/3udzeSleQHC1u8xMhcYWQut7LTksYkTfSvReCpprdeqB/7uZ/13cYz+uqnP6eH7rzbdxtD7bLve4Fe+IqX+m7jGf3NbR/RqeNP+G4DjllrZa1VUeTK81xpnint9ZRmqay1fa1lZKyJjJUxaRzFp6IoeiSO409kjey/7tu3b3Ytx0xW+4FbbrjlBwtTXKNl/Z9Wdtx8K0NY9fd/FgCAQWaMkTFGURQpSSqqSVLzdDDodDtqd1pK07QvtayssYU1kmpFnm+XtF3SPzYt87v7fuU3Hokrye9d987r3reaYz7rAHDLDbf8YGGL3ypU/DBjPQAAZ2eMUaPeUKPeUK/X09LKorIsK6WWlTW9tLdXae//+41fvv53kmrl165753UfeDaffcYAcPO+mzfYyL6nUPEGmbXfMgAAIDTValWbKtNqd9paXlnq+62BM6VZOpnl2fvf/u/3/YeJ+oaX/8pv/sqR8/358z4EePMNN3+/jezXJb1R63heAACAUBlj1Gw0tWlqWkm86jvvq2KtVbfXvXx2+dSBG3/1xvM+LHXOAHDLO255uZX9nKRL+90gAAChSeJEU5ObVKlUS69VFEWl3Wl9+MZfvfE/nevPnDUA3PyOm3+ssMVfS9pQWncAAAQmiiJNbZxSpVIpvZaVVbvT+s3fetuNv3bWXp7+hffse88/sNb+maTyIwoAAIExxmhq4ybFcVx6LSurlVbrd2781Rv/r6f/3lMCwPt+530boyj6U0njpXcFAECgjDGa3DglY8p/vM7Kmk6v/cc3XnvjrjO//pQA0Ek7N0naU3o3AAAELokTjY+5ud4uiqKSd7PPnPm1bweAm2+4+R/L6vVOOgEAAGo2xlRJyn8eQJJ6vd5lN/7ajb/45K+/HQAKFb8tXvUDAMCpsaabWQBrrXpZ93ef/HUkSTffcPNLjMwPOukAAAB8W7VadTYLkKXZxG++7Tf/H+lbAcDKvtlJZQAA8BRPLh3sSpamvyJJ0X/e95/HJf0zZ5UBAMBT1Ot1Z7V6aW/P7/3739scZXH2w5KazioDAICnMCZydhvAyqodt6+JZPUSJxUBAMA5Vavu1t8r8vynIyt7pbOKAADgrJKk3I2CzmRtcUkUKbrMWUUAAHBWcck7BZ4pt8VUZGU3O6sIAADOKorOuUFv3xV5UYkkjTmrCAAAzipysC/At1mZSJKbxw4BAMA5Weuwlux3bwcMAABGHwEAAIAAEQAAAAgQAQAAgAARAAAACBABAACAABEAAAAIEAEAAIAAEQAAAAgQAQAAgAARAAAACBABAACAABEAAAAIEAEAAIAAEQAAAAgQAQAAgAARAAAACBABAACAABEAAAAIEAEAAIAAEQAAAAgQAQAAgAARAAAACBABAACAABEAAAAIEAEAAIAAJb4bKEue50qzVHmer/tYURSpWq0qjuI+dAYAKEue5+qlPRVFse5jxXGsSlJRHI/muX/kAsBKa0UzczNqd9qy1vb12M1GU9OT0xofG+/rcQEA67PcWtapuVNqtVt9Pa4xRo16Q5unNmusOdbXY/s2OgHASsdnjmtuYa60Eq12S612S5MbJrV1y1YZY0qrBQB4ZtZaHTtxTAtLC6Udv9Vu6WD7oKYmp7R1eqs0Iqf+kXkGoOzB/0zzi/M6duKYk1oAgHM7fvJ4aYP/083Nz+n4qeNOarkwEgFgeWXZ2eD/pIWlBS2tLDmtCQD4jsXlRc0vzjutOTc/p5XWitOaZRmJAHBq7pSXujOzM17qAgA8nvvnRuPcP/QBIMsytTr9fejj2ep0O0qz1EttAAhZmqbqdDtearfarb68Yebb0AeAXtrzW7/ntz4AhMj3ub+bdr3W74ehDwD9ftVv1fULv/UBIESFXf97/usxCuf+oQ8ASeL3TcakMjpvUgLAsEhiz+d+z2NPPwx9AKhVa95+EKIoUq1a81IbAEJWr9W9rdCXJMlInPuHPgBI0sYNG73UndwwyWJAAOCBMUYbJzyd+ycmvdTtt5EIANNT06okFac1kyTR5qnNTmsCAL5j89Rm5zPA1UpV01PTTmuWZSQCQBzF2rl9p7N7MnEca9e2XSO7QQQADIM4jrVz205n5+IkSbRj2w5F0UgMnaMRACSpXq1r987dGm+Wu1HPWHNMl+y6RPVavdQ6AIBn1qg3tHvnbo01yt2oZ3xsXJfsvET16uic+4f/McYzVJKKdm3fpU63o+WVZfV6PWVFtu7jxnGsaqWqibEJBn4AGDDVSlUX7bhInW5HSytL6qW9vizUk0SJqtWqxsfGR/LcP1IB4En1Wn0k/7IAAOfGuX91RuYWAAAAePYIAAAABIgAAABAgAgAAAAEiAAAAECACAAAAASIAAAAQIAIAAAABIgAAABAgAgAAAAEiAAAAECACAAAAASIAAAAQIAIAAAABIgAAABAgAgAAAAEiAAAAECACAAAAASIAAAAQIAIAAAABIgAAABAgAgAAAAEiAAAAECACAAAAASIAAAAQIAIAAAABIgAAABAgAgAAAAEiAAAAECACAAAAASIAAAAQIAIAAAABCjx3QDOrbCFVlorStNUeZ7Lyq7reEmcqFqtqtloKjJkPwCnFbZQq91Sr9dTlmfrOpaRURzHqlQqGmuOca4ZYASAAVQUhWbmZjS3MKeiKPp+/CiKND05rempaRlj+n58AMOhsIVOzZ3S7PxsaeeaTRs3aXpqWlFEEBg0BIABk2WZDh49qG6vW1qNoih0cvakllvL2rVtl+I4Lq0WgMGU57kOHTukdqddWo0nL2aWVpZ00faLlCQMOYOESDZAClvo0LFDpQ7+Z2p32jp8/LCsXd+tBQBDxkqHjx8udfA/U7fX5VwzgAgAA2Rufk6dbsdpzVa7pYWlBac1Afg1tzjcNNHUAAAMbklEQVSnVrvltGa709bc/JzTmjg/AsCAsNZqdmHWS+3ZeT91AfjhayCeXZhlFmCAEAAGRC/tKcvW9/TtWnV7XaVZ6qU2ALfSLFU3dXObcZBq47sRAAZEmvodgH3XB+CG73/rWernQgffjQAwINb7jj8AAKtBABgQlUrFa/1qpeq1PgA3Konfc43vcx2+gwAwIGqVmrd/mNVqlfdzgUBUKhVVq34Cf5IkXGwMEALAgDDGaGpyykvtzVObvdQF4Mf05LS3uqw+OjgIAANk08ZNatQbTmuONca0YXyD05oA/JqcmNRYc8xpzUa9oamNfi5ycHYEgAFijNHObTtVr9Wd1Gs2mtqxdQeJHAiNkXZs3aFmvemkXL1W186tOznXDBhu/A6YJE508c6LS92gI45jbZrcxHQcELA4inXRjos0Oz+rmbmZcjcem5yWiTjXDBoCwACKTKQtm7Zoemr69BadaU+2WP9rgsYY1ao1NRtNBn4AMsZoempamyY3qdVuqdvr9mWlPhMZVStsPT7oCAADLDKRxpvjvtsAMOKMMRprjjl/LgB+Ec0AAAgQAQAAgAARAAAACBABAACAABEAAAAIEAEAAIAAEQAAAAgQAQAAgAARAAAACBABAACAABEAAAAIEAEAAIAAEQAAAAgQAQAAgAARAAAACBABAACAABEAAAAIEAEAAIAAEQAAAAgQAQAAgAARAAAACBABAACAABEAAAAIEAEAAIAAEQAAAAgQAQAAgAARAAAACBABAACAABEAAAAIEAEAAIAAEQAAAAgQAQAAgAAlvhsoQ7vT1nJrWb1eT3mRr/t4URSpVqlpfGxcjXqjDx0CAPqt3WlreWVZ3bSroijWfbw4ilWtVEf23D9SASDNUh07cUwrrZW+H3tJS5qZm1Gz0dT2C7arUqn0vQYAYPV6aU/HThxTq90q5fgzczMaa45p25ZtI3XuH5lbAJ1uRwcOHShl8D9Tq93SgUMH1Ol2Sq0DAHhm7U5bjx1+rLTB/0krrRU9dvgxdXvdUuu4NBIBoCgKHT52WHm+/un+ZyMvch06eshZPTxVlqW+W3hW0rTnu4Whl6XD8Xc9LH2OmjzPdfi4u3N/lmc6dOxQX24tD4KRCAAzczNKHQ8KWZ5pZm7GaU2c1l4qd5anX9rLw9HnIGuvDMf3sLW07LuFIM3MzijLMqc10zTVqblTTmuWZSQCwMLigre61lovtUPW63bV6w7+NNzKwqLvFobeMHwPe92u0h6zPa5ZazW/NO+l9sKSnzGn34Y+AHR7XWW52wT4pLzIeRbAk2MHHvfdwnktzc1reX40ThI+Lc3Na2nOz0n+2Tr66GO+WwhSp9vpy5P+a5FlmXojEPqGPgC4nv55ujwbjXtBw+bII4/6buG8Dg94f8PkyCMHfLdwXkcHvL9R5fvc6/q2cxmGPgCYyARdP1SHHnx4YK+wiyzXQ1+/y3cbI+PBr9+pYkAfuF1ZWNThhx7x3UaQfJ97o2joh8/hDwDVStVv/arf+qEqikL3/N2XfbdxVt+8826tLC75bmNktBaX9NCd9/hu46zu+uLf8TaQJ77Pvb7Hnn4Y+gCQxImajaaX2vVaXZVkdBaFGDaP3fegHn/gm77beIr5kzO650uDGUyG2d1f+nvNnxyst24OffNhPX7/YP38haSSVFSv1b3UbjaaiuPYS+1+GvoAIEmbpzb7qbvJT118x//65Kc1+8QJ321Ikrrttr7wsb/knfASZL1UX/jYX6rbbvtuRZI0+8QJ/f1f/43vNoLn6xzsa8zpt5FYCnisOaapySnNzc85q7lxYqMmxiac1cPZ5Wmmz3304/qRn32VNm6e9tZHr9vV5z768YF4bS3Pc7U77b69HZPEiRr1hvcrnpWFRd1x+1/o5a/+56o1/K3LvnhqTp//808oT/0+gAxpYmxCkxsmNb/o7k2RTRs3aaw55qxemcxNN9w0Gi+yW+mJU09odn629FKTGya1dctWGcMDgIOi1mh4CwG9blefvf0vvM9E9Ho9nTh1Qsut5b6vT2GM0VhzTBdOX+j93uvkls3eQsDiqTl95vY/U2el3GVn8exZa3X85HEnIWDTxk26cPOFUkmn/qIodPKUu/NI/OMv+/F9zqqVyUjjzXGNNcaUZZnSvL/TsMYYNRtNbbtgmzZNbmLwHzB5lunggw9r+57dqjfdPRMyKIP/4vKiDh47WOo65b20p4XFBVWrVdWqtdLqPJNOq6Vjjx3URc/Zq8ThxiwM/oPJGKOJsQk1602lWdr/dWHM6Vnm7Rds19TGqdIGf+l0mGm13a1+OTozAE9TFIV6aa8vT+hGUaRqpep9ChTPzOVMwKAM/q12SwePHnS2KqUxRhdtv8jbw7dPcjkTwOA/PPI8Vy/t9Wc74Pj0dsCuXvlzPQMwsgEA4XIRAgZl8LfW6tGDj6rneOOhSlLRpRdf6n0mzEUIYPCHK64DwEi8BQCcqdtu6zMf+XMtzJSzYcegDP6StLS85Hzwl06vgra04n+tg/mTM7rj9r8o7e0ABn+MMgIARlJZIWCQBn9JWmr5G4SXVwZjB7yyQgCDP0YdAQAjq98hYNAGf8nveuSDtBZ6v0MAgz9CQADASOtXCBjEwV+S5PEJnkHbCrtfIYDBH6EgAGDkPRkC5k6cXNPnO62W7vjInw/e4C8pSfyt5TWIy2DPn5zRZ//0Y+q01jZ4z504qU9/+KMM/ggCAQBB6Lbb+vSHPqpD33x4VZ+bO3FSn7ztI2sOD2Ubb477qz3mr/b5zJ04qU9+8MM6dfyJVX3u4IMP6dMf+ujALDcMlG10FgICnkFRFDr44EOaPzGjyc3T510wqL2yoru+8Hf66qc+q16nvMV11qtaqWphcUGFXf87z6uRxMlAr4aZ9np6bP8Daq+0NHXhFlXOs3rhwswpfeWTd2j/l7/Sl3fHgbViISDAkcktm7V190WamNyoar2urJdqZWlRTzx+WDNHjw3cPe5zWVxa1NETR50uBLT9wu3aML7BSb31MsZo845t2nrRLjUnJpRUK+p1OlqaX9CxA4+X9roosFqu1wEYic2AgLWYPzkzcFvMrsWGiQ1Ks1QnHJ04Lth0wdAM/tLpq6qTh4/q5OGjvlsBBgoBABgB01PTqtfqOj5zXL1eOQsD1ao1Xbj5wpHZCQ0IHQEAGBFjzTHt2bVHnW5H7XZbaZ6u+552FEVKkkRjjTHVqrWBvecPYPUIAMAIMcaoUW+oUXe/VS6A4cJrgAAABIgAAABAgAgAAAAEiAAAAECACAAAAASIAAAAQIAIAAAABIgAAABAgCJJme8mAACAO0ZGkaRl340AABA6pzuQGtlIEnthAgDg2Xr37lgNY0wWSXrIWUUAAHBWeZ47qxXH8Vxkrb3HWUUAAHBWWe7ukbzIxI9GkaLPO6sIAADOqpd2ndUyifmrqF1vf0FS21lVAADwFEVRKE1TN8WMVDSK90dve9vbliR93E1VAADwdN1ux1mtSlJ9bN++fSciSYpM9AFnlQEAwFO0O+4m4itJfJMkmSe/cNPbb/qSjH7AWQcAAEDdXlfzC3NOaiVxsnzDe98xIZ2xFHARFddKcrgKAQAAYbPWamXFzXp8xhhVKsl/+vavz/zNm95x022yeq2TTgAACFyr3dLS8qKTWrVq7ZHf+P19e5/89VM2Ayry4q2SDjjpBACAgOVZpuWVJSe14jjOoih+5Zlfe0oA+OV9vzxvZX9WUstJRwAABMhaq7nFeSfr/xsZVWrVN1z3ruseOfPr37Ud8C9d/0tfkdG/lOTohUQAAMJhrdX8wpxyByv/GRk1a2PXX//O6297+u99VwCQpH933b/7H8aYn5DkZm4CAIAAWGs1tzCnXtorvZaRUb3R2Hft7137jrP//nm894b3/h9G5nZJu8toDgCAUGR5pvnFeeVZ+Vf+URxl1VrtDWe78n/SeQOAJP3hb//hVJqmN0t67bP58wAA4Kla7ZaWV5ZKv+dvjFE1qT4am+Tlv/77v/74ef/ssz3oe97xnpfGNv4tK/vi9bcIAMDo66U9La8sOVnnP07ipWpSufa6d/3GLc/mz6/6iv6mt9/0MhldLemfS2qs9vMAAIwya6063Y7anVb5A785vbZ/JYlv+vXfvf69q/zo2rzrXe8aq7fqP5wrf4kx5kpJeyVtkbRBUrzW4wIAMCyKopC1hbI8V5Zl6qU9pWmv71P9xhhJslEUpbGJFkwUP2IS81dFo3j/vn37TqzlmP8bHXODT3/kP30AAAAASUVORK5CYII=;" vertex="1" parent="1">
          <mxGeometry x="64" y="344" width="40" height="40" as="geometry" />
        </mxCell>
        <mxCell id="3M7Vr9DxULC0OH6YLq8r-71" style="edgeStyle=orthogonalEdgeStyle;rounded=0;orthogonalLoop=1;jettySize=auto;html=1;exitX=0;exitY=0.5;exitDx=0;exitDy=0;exitPerimeter=0;" edge="1" parent="1" source="3M7Vr9DxULC0OH6YLq8r-9" target="3M7Vr9DxULC0OH6YLq8r-61">
          <mxGeometry relative="1" as="geometry" />
        </mxCell>
        <mxCell id="3M7Vr9DxULC0OH6YLq8r-81" style="edgeStyle=orthogonalEdgeStyle;rounded=0;orthogonalLoop=1;jettySize=auto;html=1;" edge="1" parent="1" source="3M7Vr9DxULC0OH6YLq8r-9" target="3M7Vr9DxULC0OH6YLq8r-79">
          <mxGeometry relative="1" as="geometry" />
        </mxCell>
        <mxCell id="3M7Vr9DxULC0OH6YLq8r-89" style="edgeStyle=orthogonalEdgeStyle;rounded=0;orthogonalLoop=1;jettySize=auto;html=1;exitX=0.5;exitY=1;exitDx=0;exitDy=0;exitPerimeter=0;entryX=1;entryY=0.5;entryDx=0;entryDy=0;" edge="1" parent="1" source="3M7Vr9DxULC0OH6YLq8r-9" target="3M7Vr9DxULC0OH6YLq8r-76">
          <mxGeometry relative="1" as="geometry" />
        </mxCell>
        <mxCell id="3M7Vr9DxULC0OH6YLq8r-92" style="edgeStyle=orthogonalEdgeStyle;rounded=0;orthogonalLoop=1;jettySize=auto;html=1;exitX=0.855;exitY=0.855;exitDx=0;exitDy=0;exitPerimeter=0;entryX=1;entryY=0.5;entryDx=0;entryDy=0;" edge="1" parent="1" source="3M7Vr9DxULC0OH6YLq8r-9" target="3M7Vr9DxULC0OH6YLq8r-78">
          <mxGeometry relative="1" as="geometry">
            <Array as="points">
              <mxPoint x="822" y="765" />
            </Array>
          </mxGeometry>
        </mxCell>
        <mxCell id="3M7Vr9DxULC0OH6YLq8r-143" style="edgeStyle=orthogonalEdgeStyle;rounded=0;orthogonalLoop=1;jettySize=auto;html=1;exitX=0.145;exitY=0.855;exitDx=0;exitDy=0;exitPerimeter=0;entryX=1;entryY=0.5;entryDx=0;entryDy=0;" edge="1" parent="1" source="3M7Vr9DxULC0OH6YLq8r-9" target="3M7Vr9DxULC0OH6YLq8r-57">
          <mxGeometry relative="1" as="geometry">
            <Array as="points">
              <mxPoint x="773" y="630" />
            </Array>
          </mxGeometry>
        </mxCell>
        <mxCell id="3M7Vr9DxULC0OH6YLq8r-9" value="Master Node - Internet Gateway" style="outlineConnect=0;dashed=0;verticalLabelPosition=top;verticalAlign=bottom;align=center;html=1;shape=mxgraph.aws3.internet_gateway;fillColor=#F58534;gradientColor=none;labelPosition=center;" vertex="1" parent="1">
          <mxGeometry x="763" y="328" width="69" height="72" as="geometry" />
        </mxCell>
        <mxCell id="3M7Vr9DxULC0OH6YLq8r-94" style="edgeStyle=orthogonalEdgeStyle;rounded=0;orthogonalLoop=1;jettySize=auto;html=1;exitX=0;exitY=0.5;exitDx=0;exitDy=0;" edge="1" parent="1" source="3M7Vr9DxULC0OH6YLq8r-10" target="3M7Vr9DxULC0OH6YLq8r-79">
          <mxGeometry relative="1" as="geometry" />
        </mxCell>
        <mxCell id="3M7Vr9DxULC0OH6YLq8r-10" value="John Deere Operations CentreÂ &#xa;User Interface" style="shape=image;imageAspect=0;aspect=fixed;verticalLabelPosition=bottom;verticalAlign=top;image=data:image/svg+xml,PHN2ZyB4bWxuczp4bGluaz0iaHR0cDovL3d3dy53My5vcmcvMTk5OS94bGluayIgdmlld0JveD0iMCAwIDE5MC44MzU0IDE0Ny4wNTQ0IiBzdHlsZT0ic2hhcGUtcmVuZGVyaW5nOmdlb21ldHJpY1ByZWNpc2lvbjsgdGV4dC1yZW5kZXJpbmc6Z2VvbWV0cmljUHJlY2lzaW9uOyBpbWFnZS1yZW5kZXJpbmc6b3B0aW1pemVRdWFsaXR5OyBmaWxsLXJ1bGU6ZXZlbm9kZDsgY2xpcC1ydWxlOmV2ZW5vZGQiIHZlcnNpb249IjEuMSIgaGVpZ2h0PSIxNDcuMDU4bW0iIHdpZHRoPSIxOTAuODRtbSIgeG1sOnNwYWNlPSJwcmVzZXJ2ZSIgeG1sbnM9Imh0dHA6Ly93d3cudzMub3JnLzIwMDAvc3ZnIj4mI3hhOyA8ZGVmcz4mI3hhOyAgPHN0eWxlIHR5cGU9InRleHQvY3NzIj4mI3hhOyAgICYjeGE7ICAgIC5maWwxIHtmaWxsOiNGOEVBNDh9JiN4YTsgICAgLmZpbDAge2ZpbGw6IzRBQTM1OH0mI3hhOyAgICYjeGE7ICA8L3N0eWxlPiYjeGE7IDwvZGVmcz4mI3hhOyA8ZyBpZD0iTGF5ZXJfeDAwMjBfMSI+JiN4YTsgIDxtZXRhZGF0YSBpZD0iQ29yZWxDb3JwSURfMENvcmVsLUxheWVyIi8+JiN4YTsgIDxnIGlkPSJfODQwNzgxOTM2Ij4mI3hhOyAgIDxwYXRoIGQ9Ik0tMCAzMC4wMTAxYzAsLTMuOTI3IDAuNzg0NSwtNy44NTY3IDIuMjg0MSwtMTEuNDg2MiAxLjUwODcsLTMuNjM4OCAzLjcxODYsLTYuOTQ4IDYuNTAzNSwtOS43MzQ1IDIuNzg3MSwtMi43ODY0IDYuMDk0MywtNC45OTY1IDkuNzM0MywtNi41MDU2IDMuNjQxNSwtMS41MDM5IDcuNTQyNywtMi4yNzk4IDExLjQ4MjUsLTIuMjgzOGwxMzAuODIzNSAwYzMuOTI3MSwwIDcuODU0LDAuNzg0IDExLjQ4MzUsMi4yODM4IDMuNjQwMSwxLjUwOTIgNi45NDY3LDMuNzE5MiA5LjczNDUsNi41MDU2IDIuNzg1LDIuNzg2NCA0Ljk5NTMsNi4wOTU2IDYuNTA0Miw5LjczNTggMS41MDQsMy42NDI5IDIuMjgxMiw3LjU0NDQgMi4yODUyLDExLjQ4NjJsMCA4Ny4wMzI1YzAsMy45MjcgLTAuNzg1NCw3Ljg1NTIgLTIuMjg1MiwxMS40ODQ1IC0zLjA0NDksNy4zNTMyIC04Ljg4NzMsMTMuMTk1NyAtMTYuMjM4NywxNi4yNDIzIC0zLjY0MjksMS41MDQyIC03LjU0MywyLjI3OTkgLTExLjQ4MzUsMi4yODM3bC0xMzAuODIxMyAwYy0zLjkyNTksMCAtNy44NTU0LC0wLjc4NDUgLTExLjQ4MjYsLTIuMjgzNyAtMy42Mzk5LC0xLjUwOTQgLTYuOTQ3MiwtMy43MjAxIC05LjczNDIsLTYuNTA1OSAtMi43Nzc3LC0yLjc3NzcgLTUuMDA0NiwtNi4xMDcxIC02LjUwMzcsLTkuNzM2NCAtMS40OTk2LC0zLjYyOTMgLTIuMjgzOSwtNy41NTc1IC0yLjI4MzksLTExLjQ4NDVsMCAtODcuMDMzOCAtMC4wMDIyIDB6IiBjbGFzcz0iZmlsMCIvPiYjeGE7ICAgPHBhdGggZD0iTTQuMjAxNyAxMTcuMDQwOWMwLDMuMzgzNSAwLjY3ODIsNi43NjkyIDEuOTY4NCw5Ljg4OTEgMy45OTM5LDkuNjQwOSAxMy40MDMzLDE1LjkyNTQgMjMuODM4NSwxNS45MjA4bDEzMC44MjA2IDBjMy4zODI5LDAgNi43NjU3LC0wLjY3NzEgOS44ODU4LC0xLjk2ODYgNi4zMTQsLTIuNjE5OCAxMS4zMzA4LC03LjYzNzUgMTMuOTUwOSwtMTMuOTUyMSAxLjI5NDgsLTMuMTM2IDEuOTYzNSwtNi40OTU4IDEuOTY3NiwtOS44ODkxbDAgLTg3LjAyODJjMCwtMy4zODQxIC0wLjY3NjgsLTYuNzcxIC0xLjk2NzYsLTkuODkxMSAtMS4yOTIsLTMuMTIwMiAtMy4yMDU5LC01Ljk3NzYgLTUuNTkwMiwtOC4zNjIgLTIuMzkzOCwtMi4zOTI0IC01LjIzNTIsLTQuMjkzIC04LjM2MDgsLTUuNTg5IC0zLjEzNDcsLTEuMjk2MSAtNi40OTM0LC0xLjk2NDggLTkuODg1OCwtMS45Njg5bC0xMzAuODIxNCAwYy0zLjM4MjcsMCAtNi43NjcsMC42NzY5IC05Ljg4NzQsMS45Njg5IC0zLjEyNjMsMS4yOTc0IC01Ljk2NjksMy4xOTY1IC04LjM2MTIsNS41ODkgLTIuMzkzLDIuMzkzNiAtNC4yOTIyLDUuMjM1MSAtNS41ODkxLDguMzYyIC0xLjI5NjQsMy4xMzc1IC0xLjk2NTMsNi40OTc2IC0xLjk2OTQsOS44OTExbDAgODcuMDI4MiAwLjAwMSAwem02MC44NzUgLTEwMS4xOTc1bDAgMGMtMC40NDIsLTAuODQ4NSAtMS4xNjgzLC0xLjc5NDcgLTEuODkzMywtMi43Mzk1IDAuOTM5MSwwLjQ2NjQgMS44NTM1LDAuOTkwNSAyLjQzNTYsMS4zODcyIDAuNTgyNCwwLjM5ODEgMC44MzM0LDAuNjY3NSAxLjM0OTcsMS4xNjA3IDAuNTE1MywwLjQ5MTkgMS4yOTY2LDEuMjA3NiAxLjk3NTQsMS42NzQxIDAuNjgwNiwwLjQ2MzcgMS4yNjAyLDAuNjc4MiAyLjA2NTEsMC42NzQxIDAuODA0MywtMC4wMDUzIDEuODMzOSwtMC4yMzA1IDIuNzcwMiwtMC42Mjg2IDAuMTc0NiwtMC4xNDIgMC4zMjQzLC0wLjMxMzYgMC40MjkyLC0wLjQ4OTIgMC4xMDU0LC0wLjE3NTYgMC4xNjU0LC0wLjM1NTIgMC4yMDExLC0wLjU4ODQgMC4wMzUsLTAuMjMzMiAwLjA0NTEsLTAuNTE4NyAwLjAwNDEsLTAuOTQ0OSAtMC4wNDE3LC0wLjQyNDkgLTAuMTM1NSwtMC45ODkyIC0wLjQ1MTcsLTIuMTg4NiAtMC4zMTc1LC0xLjE5OTYgLTAuODU3LC0zLjAzNDQgLTEuNDQ0NCwtNC44NTE5IDEuMDU2NiwwLjg1OTIgMi4wMTI1LDEuODQ4MyAyLjcxNTQsMi43Nzk3IDAuNzAyNiwwLjkzMTYgMS4xNTIxLDEuODAxNCAxLjYwNzQsMy4yNzQzIDAuNDU2LDEuNDc1NyAwLjkxNTcsMy41NTQ0IDEuMjA3Niw1LjY0OCAwLjUwOTIsMS4zOTY2IDEuMDE4MSwyLjc5MzEgMS4xNTU5LDQuMjgwOCAwLjEzODcsMS40ODY0IC0wLjA5MzEsMy4wNjM5IC0wLjMyNTcsNC42NDE0IDEuNDYwOCwwLjEzODEgMi45MjA3LDAuMjc3NSA0LjUzNTQsLTAuMDU4OSAxLjYxNDcsLTAuMzM1MSAzLjM4MzUsLTEuMTQ2IDUuMTUyMywtMS45NTU0IDAuMjY3NSwwLjk0ODkgMC4yMzc5LDEuOTU4MSAtMC4wODUsMi44OTA5IC0wLjEwMDUsMC4yODk1IC0wLjIzMTIsMC41NjgzIC0wLjM5MDgsMC44MzEgLTAuMzA0OSwwLjUwMzkgLTAuNzI0OSwwLjkyODggLTEuMjI0NiwxLjI0MTEgLTAuNTI4NSwwLjM1MzkgLTEuNDE4MiwwLjY1MjggLTIuMjU0NSwwLjg0MzEgLTAuNDI1MSwwLjA5NzggLTAuODAyNSwwLjE2MjIgLTEuMTA1NSwwLjIxMDQgLTAuNjI1MiwwLjA5OTIgLTAuODkxNCwwLjE0MDcgLTEuMjc0MiwwLjIwMzcgLTAuMTk3OCwwLjAzMzYgLTAuNDM3OSwwLjA2OTcgLTAuNzMwMiwwLjEyNzQgLTAuMjkzMSwwLjA1NjMgLTAuNjM4OCwwLjEzIC0wLjg3MDEsMC4yMDY0IC0wLjIzMDgsMC4wNzY0IC0wLjM0NywwLjE1NDEgLTAuNDMyNywwLjIzODUgLTAuMDg0OCwwLjA4NDUgLTAuMDg4NywwLjIwOTEgLTAuMTcwNCwwLjI3NDggLTAuMTc4NiwwLjM2MTkgLTAuNjQ2NywwLjQ4MzkgLTAuOTExMSwwLjgzMzcgLTAuMjYxOSwwLjM0OTggLTAuNDg1MiwwLjc3NiAtMC42NTY2LDEuMzkzOSAtMC4xNzE2LDAuNjE3OSAtMC4yOTA2LDEuNDMwMSAtMC4zNjEyLDIuMTA2NyAtMC4wNzA0LDAuNjc2MiAtMC4wOTE4LDEuMjE3OCAtMC4xMTkyLDEuODE1NCAtMC4wMjQyLDAuNjM4MiAtMC4wNjgzLDEuMjc1NSAtMC4xMzE5LDEuOTExIC0wLjA3MTIsMC42NjA3IC0wLjE4MDIsMS4zMzA4IC0wLjI5NzksMi41ODQ2IC0wLjExODIsMS4yNTM1IC0wLjI0MzcsMy4wOTE5IC0wLjI1Niw0LjU2NDUgLTAuMDEyMSwxLjQ3MyAwLjA5MTEsMi41ODEgMC4yMzg5LDMuNDMwNiAwLjE0ODcsMC44NDk1IDAuMzQxNywxLjQ0MDMgMC41NzI5LDEuOTEzOCAwLjIzMiwwLjQ3MzkgMC41MDA1LDAuODMwMiAwLjgxNzQsMS4xMjIgMC4zMTc1LDAuMjkwNCAwLjY4MzQsMC41MTYxIDEuMTUzNCwwLjY4ODUgMC40NzA0LDAuMTcyMSAxLjA0NDgsMC4yOTQ2IDEuODQyNywwLjMzOTYgMC43OTY2LDAuMDQ1OSAxLjgxNjYsMC4wMTY1IDMuMTg5OCwtMC4xNjQyIDEuMzcxNywtMC4xODA4IDMuMDk2NiwtMC41MTIxIDQuNzUxOSwtMC45MTgxIDEuNjU1NiwtMC40MDM4IDMuMjQxLC0wLjg4MzUgNC43MjMsLTEuMzQ2NCAxLjQ4MzIsLTAuNDYzMyAyLjg2MSwtMC45MTExIDQuNDg3LC0xLjM3MjMgMS42MjgxLC0wLjQ2MDcgMy41MDA5LC0wLjkzNDQgNS41NDY5LC0xLjI1NDcgMi4wNDYxLC0wLjMxOTkgNC4yNjU4LC0wLjQ4ODIgNS45Njc0LC0wLjU4NiAxLjcwMTIsLTAuMDk4IDIuODgyNiwtMC4xMjc5IDQuMzIyOCwtMC4xNzM5IDEuNDQyMywtMC4wNDU4IDMuMTQxNiwtMC4xMSA0LjM4MzMsLTAuMjI1MSAxLjI0MTMsLTAuMTE0NSAyLjAyMzQsLTAuMjgwNyAyLjYzOTYsLTAuNDkwOSAwLjYxNjIsLTAuMjEwMSAxLjA2OCwtMC40NjQ4IDEuNDU4NywtMC43OTM0IDAuMTg3NiwtMS43NDgzIDAuMzUzMSwtMy41MDExIDAuNDM0NywtNC41OTE0IDAuMDgzNiwtMS4wOTE0IDAuMDgzNiwtMS41MjA2IDAuMTEwOSwtMi4xODU4IDAuMDI3OSwtMC42NjUyIDAuMDgyMSwtMS41NjYxIDAuMTU5NSwtMi4yMzI4IDAuMDc3MywtMC42NjczIDAuMTc5NCwtMS4xMDIgMC4yODQ1LC0xLjQxNjIgMC4xMDQsLTAuMzE0OSAwLjIwOSwtMC41MDk4IDAuMzE4NSwtMC42NTE2IDAuMjYwNywtMC4zMjMzIDAuNDkxNSwtMC4zNjIxIDAuNzcyOCwtMC4zNDQ1IDAuNTc3NiwwLjA2OCAxLjI2MjksMC41NTY3IDEuOTcyNywxLjU2ODUgMC4yNTExLDAuMzYxMiAwLjQ5MzUsMC43ODg1IDAuNzA3MSwxLjI2MjggMC4yMTI5LDAuNDc0NSAwLjM5ODksMC45OTY3IDAuNTQ1NywxLjU3ODQgMC4xNDkxLDAuNTgyNCAwLjI2MzMsMS4yMjQ5IDAuMzMyNSwxLjkyNDggMC4yMTcsMi4xNjMxIDAuMDA2Miw0LjY4NjkgLTAuNjkzNSw3LjEwMjUgMS40Njc2LDMuMjUxOSAyLjkzNjksNi41MDQ3IDMuNzIxLDkuOTY5NyAwLjc4NCwzLjQ2NDkgMC44ODQ1LDcuMTQ0MiAwLjk4MzcsMTAuODIzOCAxLjU0NjgsMC41NjgxIDMuMTI4MiwwLjkwMDQgNC42NjAyLDAuOTAyNCAwLjc1ODcsMC4wMDEyIDEuNTIsLTAuMDc2MSAyLjEyNDMsLTAuMTcwNSAwLjYwMTgsLTAuMDkyNSAxLjA0NTUsLTAuMjAxOCAxLjYzMzksLTAuMzM4MyAwLjY1NjgsLTAuMTYwMSAxLjMyMTUsLTAuMjkyIDEuOTkwMywtMC4zOTU2IDEuMzAwMSwtMC4xNzg3IDIuMzczNiwtMC4xNDEgMy40NTM3LDAuMjE5MSAwLjU5NzksMC4yMDEyIDEuMTY3NiwwLjQ3NjggMS42OTU2LDAuODIgMC42NDYsMC40MDM5IDEuNDAwNywwLjk2OTkgMS45MzQxLDEuMzg1NCAwLjUzMzUsMC40MTUgMC44NDQzLDAuNjc5MSAxLjUzODYsMS4yNjM2IDAuNjk1NiwwLjU4NDUgMS43NzMyLDEuNDkwMyAyLjY5MTIsMi4xNDYxIDEuODA0MSwxLjI2ODEgMy4wMDIzLDEuNjk4NyA0LjM3NzUsMi4yMDA0IDAuNjcyNywwLjIzNTUgMS4zODg2LDAuNDYwOCAyLjEyMDIsMC43MzI1IDAuNzI5MSwwLjI3MDMgMS40NzI5LDAuNTg0NSAyLjA5MzUsMC45MjA3IDAuNjE3OCwwLjMzNjcgMS4xMDcsMC42OTQ5IDEuNDc5NiwxLjAyMTIgMC4zNzU0LDAuMzI2NSAwLjYyNzQsMC42MjE1IDAuNzkzNSwwLjg3MzQgMC4xNjM2LDAuMjUyNyAwLjIzNTksMC40NjI5IDAuMjU3NCwwLjY0NTYgMC4wMiwwLjMyMjMgLTAuMDQ0MiwwLjU4MzMgLTAuNTU1LDAuODUyOCAtMC4yMzE3LDAuMTE1MiAtMC41NTc1LDAuMjIwNCAtMS4wMzE5LDAuMjg4OCAtMC40NzcxLDAuMDY3MiAtMS4xMDE4LDAuMTAwNyAtMS44NzI0LDAuMDU5IC0wLjc3MjEsLTAuMDQxOCAtMS42OTAyLC0wLjE1NzMgLTIuNjk2NiwtMC4zNjU1IC0xLjExMTIsLTAuMjMzMyAtMi4yMDQ3LC0wLjU0MDYgLTMuMjc1NywtMC45MTk5IC0yLjM3NzYsLTAuODMyNCAtNS4wODc3LC0yLjE1MzMgLTcuNzM3MywtMy44MDU4IC0xLjM2MTgsLTAuODUxMiAtMi42NzkzLC0xLjc3MDEgLTMuOTQ4NiwtMi43NTMgLTQuMDc1NywwLjQzOTkgLTguMTQ4OCwwLjk2NTEgLTEwLjgwMzksMS4zODI2IC0yLjY1NjMsMC40MTY5IC0zLjg5ODksMC43MjQ5IC01LjQzNTIsMS4wOTI0IC0xLjUzODIsMC4zNjgyIC0zLjM3MTEsMC43OTU1IC00LjkwNTYsMS4wNDgzIC0xLjUzNjEsMC4yNTMyIC0yLjc3NTEsMC4zMzE3IC0zLjgzOTQsMC4yNzE1IC0wLjk1NzgsLTAuMDQ1OSAtMS45MDI3LC0wLjI0MDQgLTIuODAxLC0wLjU3NjMgLTAuODUzMywtMC4zMjE3IC0xLjY1NjYsLTAuNzYxNiAtMi4zODY5LC0xLjMwOCAtMC43NTEyLC0wLjU2MjQgLTEuNDIyNiwtMS4yMjQ0IC0xLjk5NTksLTEuOTY3MyAtMC41Nzk3LC0wLjc1MzcgLTEuMDU3LC0xLjU4MDQgLTEuNDE4OSwtMi40NTk0IC00LjI2MTksMS41NjIgLTguNTIyNywzLjEyMzMgLTEyLjg3Miw0LjAzODUgLTQuMzUxNSwwLjkxNDYgLTguNzkwNCwxLjE4MyAtMTMuMjI5OSwxLjQ1MTMgLTAuMzgzNCwwLjg2MDIgLTAuOTIwMywxLjY1MDUgLTEuNjE0OCwyLjM2NjggLTAuNjk0MywwLjcxNiAtMS41NDkyLDEuMzU4NCAtMi44NDc3LDEuOTUwOSAtMS4yOTg1LDAuNTkzOSAtMy4wNDE5LDEuMTM3NSAtNC41MzMyLDEuNTM3NCAtMS40OTEyLDAuMzk5OCAtMi43Mjk0LDAuNjUzOCAtNC43MDU0LDEuMTA1NSAtMS45NzU2LDAuNDUxIC00LjY4NzIsMS4xMDA4IC03LjI0NzUsMS45ODUgLTIuNTYwMSwwLjg4NDUgLTQuOTY4NCwyLjAwMzUgLTcuMTI5OCwzLjE2NzIgLTIuMTYxNCwxLjE2NDIgLTQuMDc1MywyLjM3MzcgLTYuMDUzMiwzLjcyOTMgLTEuOTc3NSwxLjM1NTggLTQuMDIwNiwyLjg1NzQgLTYuMDg2Myw0LjI2NSAtMi4wNjY1LDEuNDA3NSAtNC4xNTcsMi43MTkzIC01LjkwMywzLjU4MDQgLTEuNzQ2MywwLjg2MDYgLTMuMTQ5NiwxLjI3IC00LjUyMDUsMS40OTY0IC0xLjMzMSwwLjIyNDQgLTIuNjg1NSwwLjI2OTEgLTQuMDI4MiwwLjEzMjIgOC42NzIyLC02LjczNjEgMTcuMzQzNywtMTMuNDc0NSAyMy4yNTQ0LC0xNy42ODIgNS45MTE0LC00LjIwNzcgOS4wNjE0LC01Ljg4NjYgMTIuMjExMywtNy41NjY2IC0xLjAyOTcsLTEuMzYxIC0xLjk3MzksLTIuNzg0NSAtMi44MjY4LC00LjI2MjkgLTAuODU1NywtMS40ODUzIC0xLjYyNywtMy4wMzM1IC0yLjE3NTMsLTQuMzQzMiAtMC41NDksLTEuMzA5OCAtMC44NzU1LC0yLjM4MDUgLTEuMDk0NywtMy40MTcgLTAuMjI0LC0xLjAzOCAtMC4zMzQ5LC0yLjA5NjMgLTAuMzMxOCwtMy4xNTggMCwtMS4xMjU0IDAuMTE0MiwtMi4zNzQ3IDAuMzcyNCwtMy44MzQ2IDAuMjU3MSwtMS40NjA2IDAuNjU5MSwtMy4xMjk1IDAuOTc1NCwtNC4zNjU4IDAuMzE2LC0xLjIzNSAwLjU0NzcsLTIuMDM3NyAxLjAzNDMsLTMuODE5NiAwLjQ4NjcsLTEuNzgyNCAxLjIyODEsLTQuNTQ1NiAxLjYzMzEsLTYuNDI4NyAwLjQwMzksLTEuODgzOSAwLjQ3MjMsLTIuODg5NCAwLjQ1ODgsLTMuNjU3NCAtMC4wMTQxLC0wLjc2ODQgLTAuMTA4OSwtMS4zMDA1IC0wLjI1NDYsLTEuNzI0MiAtMC4xMjA1LC0wLjM3MTEgLTAuMzIzLC0wLjcwOTggLTAuNTkyOCwtMC45OTEzIC0wLjI0OTEsLTAuMjU3MyAtMC41NDk4LC0wLjQ1NiAtMC45ODg1LC0wLjYwNSAtMC40Mzg3LC0wLjE0OTIgLTEuMDIxMiwtMC4xNzMzIC0xLjU4OTQsLTAuMjU4IC0wLjY3NjMsLTAuMDgwNyAtMS4zNDUyLC0wLjIwOTQgLTEuODksLTAuMjU3NCAtMC41NDQ5LC0wLjA0NjYgLTAuOTU3OCwtMC4wNTA4IC0xLjQ4NTMsLTAuMDY3OSAtMC41NTMyLC0wLjAxNCAtMS4xMDU2LC0wLjA1MDQgLTEuNjU1MywtMC4xMTAyIC0wLjQ4OCwtMC4wNjIzIC0wLjgyMzUsLTAuMTUzMiAtMS4xMTcxLC0wLjI4MjYgLTAuMjc1LC0wLjEyMTMgLTAuNTI4NCwtMC4yODU1IC0wLjc1MTcsLTAuNDg2NyAtMC4yMDU0LC0wLjE3OSAtMC4zNzE3LC0wLjM5ODEgLTAuNDg4NywtMC42NDM1IC0wLjExMSwtMC4yNDk2IC0wLjE5NjIsLTAuNTA4OCAtMC4yNTUxLC0wLjc3NTUgLTAuMDQ4OSwtMC4yMDY0IC0wLjA2MTEsLTAuMzAyOSAtMC4wOTE4LC0wLjQ5MDYgLTAuMDQ2OCwtMC4zNDMxIC0wLjIzODksLTEuMjEwMiAtMC4yOTc4LC0xLjk0MjEgLTAuMDIyNiwtMC4zNDg0IDAuMDA0OSwtMC42MjE5IDAuMDY1LC0wLjg0MTcgMC4xMjgsLTAuMzc5MyAwLjIzNjIsLTAuNjI5OSAwLjg4MzcsLTAuOTA0NyAwLjI4MzUsLTAuMTExMiAwLjY3NDIsLTAuMjEzMSAxLjI4MDgsLTAuMjk2MiAwLjYwODMsLTAuMDgzMSAxLjQzMjYsLTAuMTQ3NCAyLjQxMzQsLTAuMjExOCAwLjk4MTUsLTAuMDY0MyAyLjExNjYsLTAuMTMgMy43MzA2LC0wLjI1ODYgMS42MTQ4LC0wLjEzMDEgMy43MDU4LC0wLjMyNDQgNS4yNzY3LC0wLjUzMzUgMS41Njk4LC0wLjIxMDQgMi42MTgzLC0wLjQzNTYgMy40Njc5LC0wLjY2NjEgMC42OTUsLTAuMTgyMyAxLjM3NDIsLTAuNDE5NSAyLjAzMDgsLTAuNzA5MSAwLjQ1MjgsLTAuMTk5NyAwLjg4MTQsLTAuNDUwMyAxLjI3ODYsLTAuNzQ1MiAwLjMzNjIsLTAuMjU2IDAuNTk4NSwtMC41MjI3IDAuODI0OSwtMC44MjAyIDAuMjI2NiwtMC4yOTYyIDAuNDE1NCwtMC42MjE5IDAuNTc5NywtMS4wNjI5IDAuMTcxNywtMC40ODc5IDAuMzA1NSwtMC45ODc4IDAuNDAwNSwtMS40OTU4IDAuMDk3LC0wLjQ5OTkgMC4xNTIsLTAuOTM4MiAwLjE0OSwtMS4yODY3IC0wLjAwMzIsLTAuMzQ4NSAtMC4wNjIxLC0wLjYwNTggLTAuMTU4MSwtMC44MzUgLTAuMTkyOCwtMC40MzAyIC0wLjQ0NzYsLTAuNzg0MSAtMS4xNTU4LC0xLjE0NiAtMC4zMzU1LC0wLjE2NzUgLTAuNzc2MywtMC4zMzEgLTEuMzQyNCwtMC40NzA0IC0wLjU2NjEsLTAuMTQyMSAtMS4yNTksLTAuMjYxNCAtMS45OTgxLC0wLjMzMTEgLTAuNzQyLC0wLjA2OTcgLTEuNDg3NSwtMC4wODg0IC0yLjIzMjEsLTAuMDU3NiAtMC42MzgxLDAuMDIyOCAtMS4yNzI2LDAuMTA1OSAtMS44OTQ4LDAuMjQ5MyAtMC41NzM2LDAuMTM5NCAtMS4xMDQ4LDAuMzMxMSAtMS40NTg3LDAuNDY3OCAtMC4zNTQsMC4xMzggLTAuNTMxNiwwLjIxOTggLTAuOTc1NCwwLjQxNDEgLTAuNDQ0OSwwLjE5NTcgLTEuMTU1NiwwLjUwMjYgLTEuODQ1MywwLjcwNzcgLTAuNjg4NywwLjIwNTEgLTEuMzU2OCwwLjMwODMgLTIuMjU4NCwwLjM3MzkgLTAuOTAxNSwwLjA2NTcgLTIuMDM5LDAuMDkzOSAtMy4xMjk1LDAuMDcxMSAtMS4wOTA0LC0wLjAyMjggLTIuMTM0OCwtMC4wOTUyIC0zLjE3MzIsLTAuMjE5OCAxLjEwOTgsLTAuNDU3MSAyLjIyNDcsLTAuOTAzNCAyLjg4NTcsLTEuMTU4MSAwLjY2MTIsLTAuMjUzMyAwLjg2OCwtMC4zMTQ5IDEuMjA3NSwtMC40Mjg4IDAuMzQwMiwtMC4xMTUzIDAuODEyLC0wLjI4MTUgMS4xNjAzLC0wLjQyNzYgMC4zNDc3LC0wLjE0NDggMC41NzA5LC0wLjI2ODEgMC43MzY1LC0wLjM3OTMgMC43NDM0LC0wLjU0MTUgMC42MjcxLC0wLjk3MzEgMC41MTYxLC0xLjQ2MDkgLTAuMDk4LC0wLjMyODQgLTAuMzMxOSwtMC43NTczIC0wLjY2NzMsLTEuMTU2NyAtMC4zMzIxLC0wLjM5NTQgLTAuNzM1OCwtMC43MjUxIC0xLjE4OTUsLTAuOTcwNCAwLjU5OCwwLjA3NzcgMS4xOTE0LDAuMTg5IDEuNjU0OCwwLjMwNDIgMC45Mjg5LDAuMjMxOSAxLjM2NTYsMC40OTYgMS45ODg3LDAuNzM5OSAwLjYwODQsMC4yMzk5IDEuMjQ0NSwwLjQxNDEgMS44MDM2LDAuMzE2MyAwLjUzMTQsLTAuMDczNyAxLjE0NjYsLTAuMzE3NyAxLjczMSwtMC43NDM5IDAuMjgyOCwtMC4yMDM3IDAuNTQ3OCwtMC40NDYzIDAuNzgzNCwtMC43MTMgLTAuMTU0MSwtMC43NDc5IC0wLjMxMzEsLTEuNDk3MiAtMC43NTQ2LC0yLjM0NDF6bS00Ni4zNzQyIDExMS4zMDlsMCAwYzAuMTM3LDAuMjI4NiAwLjMwMTIsMC40NDA5IDAuNDg5NywwLjYzMDQgMS4wOTQ1LDEuMDMzNiAyLjM0MzEsMS4yMTU4IDMuNjIsMC41OTk4IDAuMjM0OCwtMC4xMjEzIDAuNDU3MiwtMC4yNzQ1IDAuNjU1OCwtMC40NDg2IDAuNDE0LC0wLjM2MiAwLjcyMTksLTAuODI5MSAwLjg5MTksLTEuMzUxNyAwLjEwMDksLTAuMjkxNyAwLjE4MzYsLTAuNjM1NSAwLjI0MDUsLTEuMTExIDAuMDU3NCwtMC40NzUxIDAuMDc5NCwtMS4wODMxIDAuMDc5NCwtMS42ODhsMCAtNy45MzI4IDMuMzY5NiAwIDAgNy44MjQ1YzAsMC45MDkgLTAuMDU3NCwxLjgxOTYgLTAuMTg0NywyLjU4MzkgLTAuMTA1MywwLjY2NzQgLTAuMjkyNSwxLjMxOTQgLTAuNTU3MiwxLjk0MDkgLTAuMjI4NywwLjUzNjcgLTAuNTIxLDEuMDQ0MSAtMC44NzA5LDEuNTEwNyAtMC4zMzE2LDAuNDM4OCAtMC42OTg3LDAuODA0MiAtMS4wOTQ0LDEuMTAyIC0wLjM5NywwLjI5OTggLTAuODM3OCwwLjUzNjkgLTEuMzA2OCwwLjcwMjggLTAuOTU2MSwwLjM0ODYgLTIuMjIyNywwLjQ2MyAtMy40MDIsMC4zMDM5IC0wLjU4MjUsLTAuMDc4NiAtMS4xMjM5LC0wLjIyNDQgLTEuNjAwMywtMC40MTk0IC0wLjQ3NjUsLTAuMTk0NSAtMC44OTA3LC0wLjQ0MjcgLTEuMjUxOSwtMC43MzY1IC0wLjM2MDksLTAuMjkzNyAtMC42NzExLC0wLjYzMzMgLTAuOTI0MSwtMS4wMTE3bDEuODQ1MyAtMi40OTkyem0yNy4zNDY0IC04LjUwODJsMCAwYzEuMzQ3NywxLjc2MzkgMS45NDQsMy45ODg0IDEuNjU4OCw2LjE4OTYgLTAuMTQzOCwxLjA4OTcgLTAuNDk5OSwyLjE0MDMgLTEuMDQ4OSwzLjA5MjcgLTAuNTUsMC45NTIxIC0xLjI4MjEsMS43ODY4IC0yLjE1NDQsMi40NTYgLTMuNjY4MiwyLjgxNDIgLTguOTIyNSwyLjEyMjQgLTExLjczNzQsLTEuNTQ1IC0xLjM0NzUsLTEuNzYzOCAtMS45NDQxLC0zLjk4ODUgLTEuNjU4NSwtNi4xODk3IDAuMTQyNSwtMS4wODUyIDAuNTAxNywtMi4xNDUyIDEuMDQ5NSwtMy4wOTM1IDAuNTQ3NSwtMC45NDg4IDEuMjg1MiwtMS43ODkzIDIuMTU0LC0yLjQ1NTMgMS43NjM1LC0xLjM0NzcgMy45ODc3LC0xLjk0MzYgNi4xODg0LC0xLjY1ODUgMS4wODY2LDAuMTQzOCAyLjE0NTIsMC41MDE4IDMuMDkzOSwxLjA0OTQgMC45NDg4LDAuNTQ3NyAxLjc4ODIsMS4yODU1IDIuNDU0NSwyLjE1NDJ6bTguNDkwNyAxMy4xMjU5bDAgMCAtMy4zNDM3IDAgMCAtMTYuMDg1IDMuMzQzNyAwIDAgNi4zNzEyIDYuODk2NSAwIDAgLTYuMzcxMiAzLjM0MzYgMCAwIDE2LjA4NSAtMy4zNDM2IDAgMCAtNi43ODgyIC02Ljg5NjUgMCAwIDYuNzg4MnptMTcuMzg3NyAwbDAgMCAtMy4zNDM3IDAgMCAtMTYuMDg1IDMuNzc4NCAwIDYuNDYxNyA5LjMwNTggMCAtOS4zMDU4IDMuMzQzNyAwIDAgMTYuMDg1IC0zLjc3OTEgMCAtNi40NjEgLTguMzEgMCA4LjMxem0yMC44ODk2IC0xNi4wODVsMCAwIDcuMDYzNCAwYzAuNjYxMSwwIDEuMzIyOSwwLjA4MjggMS45NzY2LDAuMjM3NiAwLjY1NTksMC4xNTUyIDEuMzA0OCwwLjM4NzkgMS44OTE0LDAuNjcyMiAwLjU0OTcsMC4yNjM3IDEuMDY2NSwwLjU5MTIgMS41NDAyLDAuOTc1MyAwLjQzMjYsMC4zNTYgMC43NzM1LDAuNzMwMyAxLjA1MTksMS4xNDQ2IDAuMjkxMywwLjQ0MDMgMC41MTE2LDAuOTI0IDAuNjUxNywxLjQzMzQgMC4xNjMsMC41NjQgMC4yNzMyLDEuMjM2MSAwLjMyODUsMi4xNjU1IDAuMDU1LDAuOTI5IDAuMDU0MSwyLjExNDQgLTAuMDA4MiwzLjAxOTIgLTAuMDYyMiwwLjkwNDUgLTAuMTgzOSwxLjUyNjggLTAuMzU1MSwyLjA2MjQgLTAuMTczMiwwLjUzNTMgLTAuMzk0OCwwLjk4NTEgLTAuNjgxMiwxLjM5MjMgLTAuMjg2NiwwLjQwNjggLTAuNjM3OCwwLjc3NDMgLTEuMDgwMSwxLjEyMTMgLTAuNDQzLDAuMzQ2NSAtMC45Nzg4LDAuNjczIC0xLjU5MjcsMC45NTIzIC0xLjMwNzMsMC41ODk5IC0yLjcyMzcsMC44OTkyIC00LjE1NzcsMC45MDgybC02LjY0ODQgMCAwLjAxOTcgLTE2LjA4NDJ6bTI5Ljk5MzkgNi42MjkzbDAgMCAwIDMuMjYwMiAtOC44Mjk1IDAgMCAyLjc2ODEgOC44Mjk1IC0wLjA1MDcgMCAzLjQ3NzIgLTEyLjE3MzIgMCAwIC0xNi4wODUgMTIuMTczMiAwIDAgMy4zNjkxIC04LjgyOTUgMC4wNTgyIDAgMy4yMDI4IDguODI5NSAwem0xNi4yOTk1IDBsMCAwIDAgMy4yNjAyIC04LjgyNTkgMCAwIDIuNzY4MSA4LjgyNTkgLTAuMDUwNyAwIDMuNDc3MiAtMTIuMTcxMiAwIDAgLTE2LjA4NSAxMi4xNzEyIDAgMCAzLjM2OTEgLTguODI1OSAwLjA1ODIgMCAzLjIwMjggOC44MjU5IDB6bTQuNjczNSAtNi42MjkzbDAgMCA1Ljk3NjIgMGMwLjcxNDUsMCAxLjQzMDIsMC4wNzE3IDIuMDY4MSwwLjIwMTIgMC42MzUyLDAuMTI4NiAxLjE5NTYsMC4zMTYzIDEuNjY5OSwwLjUzODYgMC40NzU4LDAuMjIzMyAwLjg2ODUsMC40ODMzIDEuMTkwMiwwLjc3NjIgMC4zMjQ1LDAuMjkzOCAwLjU4MDQsMC42MjAyIDAuNzg2OCwwLjk5NzYgMC4yMDY1LDAuMzc2NSAwLjM2MiwwLjgwMjcgMC40NTk4LDEuMjcxOCAwLjE4ODksMC44OTg4IDAuMTQ3MywyLjAyMDYgLTAuMTgyNCwzLjA1OTEgLTAuMTQ3NCwwLjQ3NTIgLTAuMzU5MiwwLjkyNzggLTAuNjI4NSwxLjM0NTYgLTAuMjQ0LDAuMzc2MyAtMC41NDI5LDAuNzEzIC0wLjg4ODcsMC45OTg2IC0wLjY1MTQsMC41NDE3IC0xLjQ1NjksMC44NjI4IC0yLjMwMTIsMC45MThsNC45OTc5IDUuOTc2NCAtNC4xMzA2IDAgLTUuNjQ5NCAtNS45NzY0IDAgNS45NzY0IC0zLjM2OTQgMCAwIC0xNi4wODMgMC4wMDEzIDB6bTI4LjM2NDMgNi42MjkzbDAgMCAwIDMuMjYwMiAtOC44MjcxIDAgMCAyLjc2ODEgOC44MjcxIC0wLjA1MDcgMCAzLjQ3NzIgLTEyLjE3MzggMCAwIC0xNi4wODUgMTIuMTczOCAwIDAgMy4zNjkxIC04LjgyNzEgMC4wNTgyIDAgMy4yMDI4IDguODI3MSAwem0tMTI5LjU1MzEgLTIuNjk5bDAgMGMwLjU0NTMsMC40MTcgMS4wMDQyLDAuOTM2OSAxLjM0OTYsMS41MyAwLjM0MzEsMC41OTM2IDAuNTY2NCwxLjI0ODYgMC42NTY5LDEuOTI4MiAwLjE3NzcsMS4zNzE0IC0wLjE5MzcsMi43NTc5IC0xLjAzNDQsMy44NTY1IC0wLjg0NzgsMS4wOTk1IC0yLjA5NTksMS44MTg4IC0zLjQ3MjMsMi4wMDEzIC0xLjM3NzcsMC4xNzg2IC0yLjc2OTcsLTAuMTkyOCAtMy44NzU4LC0xLjAzMzUgLTEuMTAwNywtMC44NDA1IC0xLjgyMjEsLTIuMDg0IC0yLjAwNTQsLTMuNDU2NyAtMC4xNzksLTEuMzcxNCAwLjE5MjUsLTIuNzU4NCAxLjAzMywtMy44NTY2IDAuODQ3MSwtMS4xMDA3IDIuMDk1NiwtMS44MjA4IDMuNDcyNCwtMi4wMDI2IDEuMzc3NiwtMC4xNzgxIDIuNzcwMiwwLjE5MyAzLjg3NjEsMS4wMzM1em01Ni44NTA2IDguNjc2N2wwIDAgMCAtMC4wMDEzIC0zLjI4MzYgMCAwLjAyMzggLTkuMjM4NyAzLjI2MSAwYzAuNDY2OSwtMC4wMDIgMC45MzM0LDAuMDM1NiAxLjM5NDUsMC4xMTM1IDAuMzU5OSwwLjA1OTkgMC43MTEzLDAuMTYyMiAxLjA0NzIsMC4zMDQ4IDAuMjYwOCwwLjExMDYgMC41MDMzLDAuMjU5MiAwLjcxOTUsMC40NDIgMC4xOTgyLDAuMTcwOCAwLjM2NywwLjM3MzIgMC40OTk2LDAuNTk4NSAwLjE1OSwwLjI2ODIgMC4yNzg2LDAuNTU4IDAuMzU1MywwLjg2MDIgMC4xMTAyLDAuNDQ1NCAwLjE3NTQsMC45MDA4IDAuMTk0NCwxLjM1OTYgMC4wMzU3LDAuNTgwNSAwLjAzOTEsMS4zMTA4IDAuMDA2MywxLjg4OTIgLTAuMDMyNCwwLjU3ODQgLTAuMSwxLjAwNTYgLTAuMTkxNywxLjM1NzYgLTAuMDkzOSwwLjM1MyAtMC4yMTMxLDAuNjMwMyAtMC4zNTQ4LDAuODY1OCAtMC4xNDA5LDAuMjM2IC0wLjMwMzEsMC40Mjk5IC0wLjUwMDEsMC41OTggLTAuMTk2NiwwLjE2OTMgLTAuNDI4NCwwLjMxMzEgLTAuNzE0OSwwLjQzNzcgLTAuMjg4OCwwLjEyNDUgLTAuNjMzNywwLjIzMDYgLTEuMDU0LDAuMzAzIC0wLjQxODMsMC4wNzIxIC0wLjkxMDYsMC4xMTAzIC0xLjQwMjUsMC4xMTAzem01MC42NDE1IC01LjIxNjZsMCAwIDAgLTAuMDAxMiAtMi45MzM4IDAgMCAtMy44MDM5IDIuOTMzOCAwYzAuNDk4NSwtMC4wMDA3IDEuMDEwNSwwLjA4NTcgMS4zOTEzLDAuMjYxNSAwLjE3NTYsMC4wODAyIDAuMzI0MywwLjE3NjQgMC40NDksMC4yODQ3IDAuMTI1OSwwLjEwNzYgMC4yMzA0LDAuMjMwMSAwLjMxNzUsMC4zNzMyIDAuNDc0NiwwLjkwMjYgMC4zODQ3LDEuNzMxOSAtMC4yNDkyLDIuMzgzOSAtMC4xMTUzLDAuMTAxOSAtMC4yNTA2LDAuMTg3NiAtMC40MTgxLDAuMjYwOSAtMC4xNjc3LDAuMDczMyAtMC4zNjg3LDAuMTM1NyAtMC42MjA3LDAuMTc3MyAtMC4yNTMyLDAuMDQzIC0wLjU2MTUsMC4wNjM2IC0wLjg2OTgsMC4wNjM2eiIgY2xhc3M9ImZpbDEiLz4mI3hhOyAgPC9nPiYjeGE7IDwvZz4mI3hhOzwvc3ZnPg==;" vertex="1" parent="1">
          <mxGeometry x="1278" y="313.5" width="130.97" height="101" as="geometry" />
        </mxCell>
        <mxCell id="3M7Vr9DxULC0OH6YLq8r-38" style="edgeStyle=orthogonalEdgeStyle;rounded=0;orthogonalLoop=1;jettySize=auto;html=1;exitX=1;exitY=0.5;exitDx=0;exitDy=0;" edge="1" parent="1" source="3M7Vr9DxULC0OH6YLq8r-32" target="3M7Vr9DxULC0OH6YLq8r-2">
          <mxGeometry relative="1" as="geometry">
            <Array as="points">
              <mxPoint x="294" y="190" />
              <mxPoint x="294" y="352" />
            </Array>
          </mxGeometry>
        </mxCell>
        <mxCell id="3M7Vr9DxULC0OH6YLq8r-32" value="Battery" style="shape=image;imageAspect=0;aspect=fixed;verticalLabelPosition=bottom;verticalAlign=top;image=data:image/svg+xml,PHN2ZyB4bWw6c3BhY2U9InByZXNlcnZlIiB2aWV3Qm94PSIwIDAgMzc3LjAyMSAzNzcuMDIxIiB4bWxuczp4bGluaz0iaHR0cDovL3d3dy53My5vcmcvMTk5OS94bGluayIgeG1sbnM9Imh0dHA6Ly93d3cudzMub3JnLzIwMDAvc3ZnIiBpZD0iQ2FwYV8xIiB2ZXJzaW9uPSIxLjEiIGZpbGw9IiMwMDAwMDAiPiYjeGE7PGc+JiN4YTsJPHBhdGggZD0iTTI3OS41MjIsMzYuMTYzaC0yMi4wODdWMjBjMC0xMS4wMjgtOC45NzItMjAtMjAtMjBoLTk3Ljg1Yy0xMS4wMjgsMC0yMCw4Ljk3Mi0yMCwyMHYxNi4xNjNIOTcuNDk5JiN4QTsmIzk7JiM5O2MtMTYuNTQyLDAtMzAsMTMuNDU4LTMwLDMwdjI4MC44NThjMCwxNi41NDIsMTMuNDU4LDMwLDMwLDMwaDE4Mi4wMjNjMTYuNTQyLDAsMzAtMTMuNDU4LDMwLTMwVjY2LjE2MyYjeEE7JiM5OyYjOTtDMzA5LjUyMiw0OS42MjEsMjk2LjA2NCwzNi4xNjMsMjc5LjUyMiwzNi4xNjN6IE05Ny40OTksMzQ3LjAyMVY2Ni4xNjNoMTgyLjAyM2wwLjAwMywyODAuODU4SDk3LjQ5OXoiLz4mI3hhOwk8cmVjdCBoZWlnaHQ9IjU5LjY2MyIgd2lkdGg9IjEzMS44NSIgeT0iMjY2LjUiIHg9IjEyMi41ODYiLz4mI3hhOwk8cmVjdCBoZWlnaHQ9IjU5LjY2MyIgd2lkdGg9IjEzMS44NSIgeT0iMTc2LjYzIiB4PSIxMjIuNTg2Ii8+JiN4YTsJPHJlY3QgaGVpZ2h0PSI1OS42NjMiIHdpZHRoPSIxMzEuODUiIHk9Ijg2Ljc2MSIgeD0iMTIyLjU4NiIvPiYjeGE7PC9nPiYjeGE7PC9zdmc+;" vertex="1" parent="1">
          <mxGeometry x="156" y="160" width="60" height="60" as="geometry" />
        </mxCell>
        <mxCell id="3M7Vr9DxULC0OH6YLq8r-44" style="edgeStyle=orthogonalEdgeStyle;rounded=0;orthogonalLoop=1;jettySize=auto;html=1;exitX=1;exitY=0.5;exitDx=0;exitDy=0;" edge="1" parent="1" source="3M7Vr9DxULC0OH6YLq8r-33" target="3M7Vr9DxULC0OH6YLq8r-32">
          <mxGeometry relative="1" as="geometry" />
        </mxCell>
        <mxCell id="3M7Vr9DxULC0OH6YLq8r-33" value="&lt;div&gt;Solar Panel&lt;/div&gt;" style="shape=image;html=1;verticalAlign=top;verticalLabelPosition=bottom;labelBackgroundColor=#ffffff;imageAspect=0;aspect=fixed;image=https://cdn2.iconfinder.com/data/icons/business-and-education-1/512/133_Solar_Panel_Energy_technology_smart_city_technology_smart-128.png" vertex="1" parent="1">
          <mxGeometry x="49" y="155" width="70" height="70" as="geometry" />
        </mxCell>
        <mxCell id="3M7Vr9DxULC0OH6YLq8r-57" value="&lt;div&gt;Soil Moisture IoT System 2 - In Paddock 1&lt;/div&gt;" style="rounded=0;whiteSpace=wrap;html=1;fillColor=#fff2cc;strokeColor=#d6b656;opacity=40;dashed=1;dashPattern=12 12;labelPosition=center;verticalLabelPosition=middle;align=center;verticalAlign=middle;" vertex="1" parent="1">
          <mxGeometry x="15" y="585" width="248" height="90" as="geometry" />
        </mxCell>
        <mxCell id="3M7Vr9DxULC0OH6YLq8r-67" style="edgeStyle=orthogonalEdgeStyle;rounded=0;orthogonalLoop=1;jettySize=auto;html=1;" edge="1" parent="1" source="3M7Vr9DxULC0OH6YLq8r-61" target="3M7Vr9DxULC0OH6YLq8r-2">
          <mxGeometry relative="1" as="geometry" />
        </mxCell>
        <mxCell id="3M7Vr9DxULC0OH6YLq8r-70" style="edgeStyle=orthogonalEdgeStyle;rounded=0;orthogonalLoop=1;jettySize=auto;html=1;" edge="1" parent="1" source="3M7Vr9DxULC0OH6YLq8r-61" target="3M7Vr9DxULC0OH6YLq8r-9">
          <mxGeometry relative="1" as="geometry" />
        </mxCell>
        <mxCell id="3M7Vr9DxULC0OH6YLq8r-59" value="&lt;b style=&quot;font-size: 11px;&quot;&gt;&lt;font style=&quot;font-size: 11px;&quot;&gt;Publish @4AM and 12PM:&lt;br style=&quot;font-size: 11px;&quot;&gt;&lt;/font&gt;&lt;/b&gt;&lt;div style=&quot;font-size: 11px;&quot;&gt;&lt;font style=&quot;font-size: 11px;&quot;&gt;System ID&lt;br style=&quot;font-size: 11px;&quot;&gt;&lt;/font&gt;&lt;/div&gt;&lt;div style=&quot;font-size: 11px;&quot;&gt;&lt;font style=&quot;font-size: 11px;&quot;&gt;TimeDate&lt;/font&gt;&lt;/div&gt;&lt;div style=&quot;font-size: 11px;&quot;&gt;&lt;font style=&quot;font-size: 11px;&quot;&gt;Paddock ID&lt;br style=&quot;font-size: 11px;&quot;&gt;&lt;/font&gt;&lt;/div&gt;&lt;div style=&quot;font-size: 11px;&quot;&gt;&lt;font style=&quot;font-size: 11px;&quot;&gt;GPS Location&lt;br style=&quot;font-size: 11px;&quot;&gt;&lt;/font&gt;&lt;/div&gt;&lt;div style=&quot;font-size: 11px;&quot;&gt;&lt;font style=&quot;font-size: 11px;&quot;&gt;Systems Health - Battery Level and Solar Panel&lt;br style=&quot;font-size: 11px;&quot;&gt;&lt;/font&gt;&lt;/div&gt;&lt;div style=&quot;font-size: 11px;&quot;&gt;&lt;font style=&quot;font-size: 11px;&quot;&gt;Soil Moisture % @ Depth 1&lt;/font&gt;&lt;/div&gt;&lt;div style=&quot;font-size: 11px;&quot;&gt;&lt;font style=&quot;font-size: 11px;&quot;&gt;Soil Moisture % @ Depth 2&lt;/font&gt;&lt;/div&gt;&lt;div style=&quot;font-size: 11px;&quot;&gt;&lt;font style=&quot;font-size: 11px;&quot;&gt;Soil Moisture % @ Depth 3&lt;br style=&quot;font-size: 11px;&quot;&gt;&lt;/font&gt;&lt;/div&gt;&lt;font style=&quot;font-size: 11px;&quot;&gt;&lt;b style=&quot;font-size: 11px;&quot;&gt;&lt;span style=&quot;font-size: 11px;&quot;&gt;Subscribe @ 1 hour Intervals during 24 hour period:&lt;/span&gt;&lt;/b&gt;&lt;br style=&quot;font-size: 11px;&quot;&gt;&lt;i style=&quot;font-size: 11px;&quot;&gt;Optional:&lt;/i&gt; Manual Soil Moisture Reading&lt;span style=&quot;font-size: 11px;&quot;&gt;&lt;/span&gt; (Power Management Cost and John Deere Platform Limitation)&lt;br style=&quot;font-size: 11px;&quot;&gt;&lt;/font&gt;" style="rounded=0;whiteSpace=wrap;html=1;align=left;fontSize=11;" vertex="1" parent="1">
          <mxGeometry x="232" y="364" width="338" height="196" as="geometry" />
        </mxCell>
        <mxCell id="3M7Vr9DxULC0OH6YLq8r-74" style="edgeStyle=orthogonalEdgeStyle;rounded=0;orthogonalLoop=1;jettySize=auto;html=1;" edge="1" parent="1" source="3M7Vr9DxULC0OH6YLq8r-73" target="3M7Vr9DxULC0OH6YLq8r-2">
          <mxGeometry relative="1" as="geometry">
            <Array as="points">
              <mxPoint x="203" y="432" />
              <mxPoint x="203" y="432" />
            </Array>
          </mxGeometry>
        </mxCell>
        <mxCell id="3M7Vr9DxULC0OH6YLq8r-73" value="&lt;div&gt;GPS Module&lt;/div&gt;" style="shape=image;html=1;verticalAlign=top;verticalLabelPosition=bottom;labelBackgroundColor=#ffffff;imageAspect=0;aspect=fixed;image=https://cdn2.iconfinder.com/data/icons/web-development-and-studio/512/44_satellite_antenna_radar_space_dish_space-128.png" vertex="1" parent="1">
          <mxGeometry x="161" y="462" width="50" height="50" as="geometry" />
        </mxCell>
        <mxCell id="3M7Vr9DxULC0OH6YLq8r-75" style="edgeStyle=orthogonalEdgeStyle;rounded=0;orthogonalLoop=1;jettySize=auto;html=1;entryX=1;entryY=0.5;entryDx=0;entryDy=0;entryPerimeter=0;" edge="1" parent="1" source="3M7Vr9DxULC0OH6YLq8r-79" target="3M7Vr9DxULC0OH6YLq8r-9">
          <mxGeometry relative="1" as="geometry" />
        </mxCell>
        <mxCell id="3M7Vr9DxULC0OH6YLq8r-76" value="&lt;div&gt;Soil Moisture IoT System X - In Paddock X&lt;br&gt;&lt;/div&gt;" style="rounded=0;whiteSpace=wrap;html=1;fillColor=#fff2cc;strokeColor=#d6b656;opacity=40;dashed=1;dashPattern=12 12;labelPosition=center;verticalLabelPosition=middle;align=center;verticalAlign=middle;" vertex="1" parent="1">
          <mxGeometry x="413" y="650" width="248" height="90" as="geometry" />
        </mxCell>
        <mxCell id="3M7Vr9DxULC0OH6YLq8r-78" value="&lt;div&gt;Soil Moisture IoT System 3 - In Paddock 1&lt;br&gt;&lt;/div&gt;" style="rounded=0;whiteSpace=wrap;html=1;fillColor=#fff2cc;strokeColor=#d6b656;opacity=40;dashed=1;dashPattern=12 12;labelPosition=center;verticalLabelPosition=middle;align=center;verticalAlign=middle;" vertex="1" parent="1">
          <mxGeometry x="16" y="720" width="248" height="90" as="geometry" />
        </mxCell>
        <mxCell id="3M7Vr9DxULC0OH6YLq8r-93" style="edgeStyle=orthogonalEdgeStyle;rounded=0;orthogonalLoop=1;jettySize=auto;html=1;entryX=0;entryY=0.5;entryDx=0;entryDy=0;" edge="1" parent="1" source="3M7Vr9DxULC0OH6YLq8r-79" target="3M7Vr9DxULC0OH6YLq8r-10">
          <mxGeometry relative="1" as="geometry" />
        </mxCell>
        <mxCell id="3M7Vr9DxULC0OH6YLq8r-79" value="John Deere Assets API End Point" style="sketch=0;outlineConnect=0;fontColor=#232F3E;gradientColor=none;fillColor=#E7157B;strokeColor=none;dashed=0;verticalLabelPosition=bottom;verticalAlign=top;align=center;html=1;fontSize=12;fontStyle=0;aspect=fixed;pointerEvents=1;shape=mxgraph.aws4.endpoint;" vertex="1" parent="1">
          <mxGeometry x="1019" y="325" width="78" height="78" as="geometry" />
        </mxCell>
        <mxCell id="3M7Vr9DxULC0OH6YLq8r-86" style="edgeStyle=orthogonalEdgeStyle;rounded=0;orthogonalLoop=1;jettySize=auto;html=1;entryX=0.145;entryY=0.855;entryDx=0;entryDy=0;entryPerimeter=0;" edge="1" parent="1" source="3M7Vr9DxULC0OH6YLq8r-57">
          <mxGeometry relative="1" as="geometry">
            <mxPoint x="773.0049999999999" y="412.55999999999995" as="targetPoint" />
          </mxGeometry>
        </mxCell>
        <mxCell id="3M7Vr9DxULC0OH6YLq8r-90" style="edgeStyle=orthogonalEdgeStyle;rounded=0;orthogonalLoop=1;jettySize=auto;html=1;exitX=1;exitY=0.5;exitDx=0;exitDy=0;entryX=0.5;entryY=1;entryDx=0;entryDy=0;entryPerimeter=0;" edge="1" parent="1" source="3M7Vr9DxULC0OH6YLq8r-76">
          <mxGeometry relative="1" as="geometry">
            <mxPoint x="797.5" y="438" as="targetPoint" />
          </mxGeometry>
        </mxCell>
        <mxCell id="3M7Vr9DxULC0OH6YLq8r-91" style="edgeStyle=orthogonalEdgeStyle;rounded=0;orthogonalLoop=1;jettySize=auto;html=1;entryX=0.855;entryY=0.855;entryDx=0;entryDy=0;entryPerimeter=0;" edge="1" parent="1" source="3M7Vr9DxULC0OH6YLq8r-78">
          <mxGeometry relative="1" as="geometry">
            <mxPoint x="821.9950000000001" y="437.55999999999995" as="targetPoint" />
          </mxGeometry>
        </mxCell>
        <mxCell id="3M7Vr9DxULC0OH6YLq8r-96" value="&lt;div&gt;Optional: Data Storage and Processing&amp;nbsp;&lt;/div&gt;&lt;div&gt;on Cloud Provider Platform&lt;/div&gt;" style="html=1;fontColor=#FF3333;fontStyle=1;align=left;verticalAlign=top;spacing=0;labelBorderColor=none;fillColor=none;dashed=1;strokeWidth=2;strokeColor=#FF3333;spacingLeft=4;spacingTop=-3;" vertex="1" parent="1">
          <mxGeometry x="948" y="192" width="270" height="330" as="geometry" />
        </mxCell>
        <mxCell id="3M7Vr9DxULC0OH6YLq8r-98" value="&lt;font style=&quot;font-size: 9px;&quot;&gt;Data Sent and Received&lt;br&gt;&lt;/font&gt;" style="text;html=1;align=center;verticalAlign=middle;resizable=0;points=[];autosize=1;strokeColor=none;fillColor=none;fontStyle=1" vertex="1" parent="1">
          <mxGeometry x="288" y="334" width="130" height="30" as="geometry" />
        </mxCell>
        <mxCell id="3M7Vr9DxULC0OH6YLq8r-105" style="edgeStyle=orthogonalEdgeStyle;rounded=0;orthogonalLoop=1;jettySize=auto;html=1;entryX=0.5;entryY=1;entryDx=0;entryDy=0;strokeColor=#97D077;" edge="1" parent="1" source="3M7Vr9DxULC0OH6YLq8r-101" target="3M7Vr9DxULC0OH6YLq8r-78">
          <mxGeometry relative="1" as="geometry" />
        </mxCell>
        <mxCell id="3M7Vr9DxULC0OH6YLq8r-101" value="&lt;div&gt;Farmer&lt;/div&gt;&lt;div&gt;deploys Soil Moisture IoT Systems on Paddocks&lt;/div&gt;" style="shape=image;html=1;verticalAlign=top;verticalLabelPosition=bottom;labelBackgroundColor=#ffffff;imageAspect=0;aspect=fixed;image=https://cdn0.iconfinder.com/data/icons/kameleon-free-pack/110/Farmer-128.png" vertex="1" parent="1">
          <mxGeometry x="285" y="749" width="128" height="128" as="geometry" />
        </mxCell>
        <mxCell id="3M7Vr9DxULC0OH6YLq8r-104" style="edgeStyle=orthogonalEdgeStyle;rounded=0;orthogonalLoop=1;jettySize=auto;html=1;exitX=0.5;exitY=0;exitDx=0;exitDy=0;entryX=0.531;entryY=1;entryDx=0;entryDy=0;entryPerimeter=0;strokeColor=#97D077;" edge="1" parent="1" source="3M7Vr9DxULC0OH6YLq8r-101" target="3M7Vr9DxULC0OH6YLq8r-30">
          <mxGeometry relative="1" as="geometry" />
        </mxCell>
        <mxCell id="3M7Vr9DxULC0OH6YLq8r-108" style="edgeStyle=orthogonalEdgeStyle;rounded=0;orthogonalLoop=1;jettySize=auto;html=1;entryX=0.536;entryY=0.979;entryDx=0;entryDy=0;entryPerimeter=0;strokeColor=#97D077;" edge="1" parent="1" source="3M7Vr9DxULC0OH6YLq8r-101" target="3M7Vr9DxULC0OH6YLq8r-76">
          <mxGeometry relative="1" as="geometry">
            <Array as="points">
              <mxPoint x="546" y="812" />
            </Array>
          </mxGeometry>
        </mxCell>
        <mxCell id="3M7Vr9DxULC0OH6YLq8r-111" style="edgeStyle=orthogonalEdgeStyle;rounded=0;orthogonalLoop=1;jettySize=auto;html=1;strokeColor=#97D077;" edge="1" parent="1" source="3M7Vr9DxULC0OH6YLq8r-109" target="3M7Vr9DxULC0OH6YLq8r-10">
          <mxGeometry relative="1" as="geometry" />
        </mxCell>
        <mxCell id="3M7Vr9DxULC0OH6YLq8r-109" value="&lt;div&gt;Farmer&amp;nbsp;&lt;/div&gt;&lt;div&gt;Monitors Soil Moisture&lt;/div&gt;&lt;div&gt;to make decisions for Farm Operations&lt;/div&gt;" style="shape=image;html=1;verticalAlign=top;verticalLabelPosition=bottom;labelBackgroundColor=#ffffff;imageAspect=0;aspect=fixed;image=https://cdn0.iconfinder.com/data/icons/kameleon-free-pack-rounded/110/Farmer-128.png" vertex="1" parent="1">
          <mxGeometry x="1498" y="300" width="128" height="128" as="geometry" />
        </mxCell>
        <mxCell id="3M7Vr9DxULC0OH6YLq8r-116" value="&lt;font style=&quot;font-size: 9px;&quot;&gt;Data Sent and Received&lt;br&gt;&lt;/font&gt;" style="text;html=1;align=center;verticalAlign=middle;resizable=0;points=[];autosize=1;strokeColor=none;fillColor=none;fontStyle=1" vertex="1" parent="1">
          <mxGeometry x="626" y="360" width="130" height="30" as="geometry" />
        </mxCell>
        <mxCell id="3M7Vr9DxULC0OH6YLq8r-117" value="&lt;font style=&quot;font-size: 9px;&quot;&gt;Data Sent and Received&lt;br&gt;&lt;/font&gt;" style="text;html=1;align=center;verticalAlign=middle;resizable=0;points=[];autosize=1;strokeColor=none;fillColor=none;fontStyle=1" vertex="1" parent="1">
          <mxGeometry x="853" y="360" width="130" height="30" as="geometry" />
        </mxCell>
        <mxCell id="3M7Vr9DxULC0OH6YLq8r-118" value="&lt;font style=&quot;font-size: 9px;&quot;&gt;Data Sent and Received&lt;br&gt;&lt;/font&gt;" style="text;html=1;align=center;verticalAlign=middle;resizable=0;points=[];autosize=1;strokeColor=none;fillColor=none;fontStyle=1" vertex="1" parent="1">
          <mxGeometry x="1133" y="358" width="130" height="30" as="geometry" />
        </mxCell>
        <mxCell id="3M7Vr9DxULC0OH6YLq8r-126" value="&lt;font style=&quot;font-size: 9px;&quot;&gt;Data Sent and Received&lt;br&gt;&lt;/font&gt;" style="text;html=1;align=center;verticalAlign=middle;resizable=0;points=[];autosize=1;strokeColor=none;fillColor=none;fontStyle=1" vertex="1" parent="1">
          <mxGeometry x="670" y="668" width="130" height="30" as="geometry" />
        </mxCell>
        <mxCell id="3M7Vr9DxULC0OH6YLq8r-127" value="&lt;font style=&quot;font-size: 9px;&quot;&gt;Data Sent and Received&lt;br&gt;&lt;/font&gt;" style="text;html=1;align=center;verticalAlign=middle;resizable=0;points=[];autosize=1;strokeColor=none;fillColor=none;fontStyle=1" vertex="1" parent="1">
          <mxGeometry x="490" y="600" width="130" height="30" as="geometry" />
        </mxCell>
        <mxCell id="3M7Vr9DxULC0OH6YLq8r-141" value="&lt;font style=&quot;font-size: 9px;&quot;&gt;Data Sent and Received&lt;br&gt;&lt;/font&gt;" style="text;html=1;align=center;verticalAlign=middle;resizable=0;points=[];autosize=1;strokeColor=none;fillColor=none;fontStyle=1" vertex="1" parent="1">
          <mxGeometry x="680" y="734" width="130" height="30" as="geometry" />
        </mxCell>
        <mxCell id="3M7Vr9DxULC0OH6YLq8r-61" value="&lt;div&gt;LoRa Transceiver&lt;/div&gt;&lt;div&gt;Communication to Internet Gateway&lt;/div&gt;" style="sketch=0;pointerEvents=1;shadow=0;dashed=0;html=1;strokeColor=none;fillColor=#434445;aspect=fixed;labelPosition=center;verticalLabelPosition=top;verticalAlign=bottom;align=center;outlineConnect=0;shape=mxgraph.vvd.wi_fi;" vertex="1" parent="1">
          <mxGeometry x="578" y="339" width="50" height="50" as="geometry" />
        </mxCell>
      </root>
    </mxGraphModel>
  </diagram>
</mxfile>
